G75*
%MOIN*%
%OFA0B0*%
%FSLAX25Y25*%
%IPPOS*%
%LPD*%
%AMOC8*
5,1,8,0,0,1.08239X$1,22.5*
%
%ADD10C,0.10000*%
%ADD11C,0.01772*%
%ADD12C,0.10236*%
%ADD13R,0.01969X0.05906*%
%ADD14R,0.02559X0.05906*%
%ADD15R,0.07087X0.12992*%
%ADD16R,0.06299X0.07087*%
%ADD17R,0.05787X0.06969*%
%ADD18R,0.14961X0.05512*%
%ADD19R,0.21654X0.15748*%
%ADD20R,0.06969X0.05787*%
%ADD21C,0.05000*%
%ADD22C,0.02200*%
%ADD23C,0.02000*%
%ADD24C,0.01600*%
%ADD25R,0.03169X0.03169*%
%ADD26C,0.03200*%
%ADD27C,0.08000*%
%ADD28C,0.04000*%
D10*
X0043674Y0038422D03*
X0054097Y0027985D03*
X0064540Y0038422D03*
X0054097Y0048851D03*
X0153910Y0038580D03*
X0164335Y0048997D03*
X0174776Y0038580D03*
X0164335Y0028131D03*
X0164335Y0199391D03*
X0153910Y0209839D03*
X0164335Y0220257D03*
X0174776Y0209839D03*
X0111784Y0209839D03*
X0101343Y0220257D03*
X0090918Y0209839D03*
X0101343Y0199391D03*
X0064540Y0209839D03*
X0054099Y0220249D03*
X0043674Y0209839D03*
X0054099Y0199383D03*
D11*
X0038654Y0187398D02*
X0038654Y0177950D01*
X0033340Y0177950D01*
X0033340Y0187398D01*
X0038654Y0187398D01*
X0038654Y0179721D02*
X0033340Y0179721D01*
X0033340Y0181492D02*
X0038654Y0181492D01*
X0038654Y0183263D02*
X0033340Y0183263D01*
X0033340Y0185034D02*
X0038654Y0185034D01*
X0038654Y0186805D02*
X0033340Y0186805D01*
X0047315Y0139367D02*
X0047315Y0129919D01*
X0042001Y0129919D01*
X0042001Y0139367D01*
X0047315Y0139367D01*
X0047315Y0131690D02*
X0042001Y0131690D01*
X0042001Y0133461D02*
X0047315Y0133461D01*
X0047315Y0135232D02*
X0042001Y0135232D01*
X0042001Y0137003D02*
X0047315Y0137003D01*
X0047315Y0138774D02*
X0042001Y0138774D01*
X0038654Y0116532D02*
X0038654Y0107084D01*
X0033340Y0107084D01*
X0033340Y0116532D01*
X0038654Y0116532D01*
X0038654Y0108855D02*
X0033340Y0108855D01*
X0033340Y0110626D02*
X0038654Y0110626D01*
X0038654Y0112397D02*
X0033340Y0112397D01*
X0033340Y0114168D02*
X0038654Y0114168D01*
X0038654Y0115939D02*
X0033340Y0115939D01*
X0047315Y0068500D02*
X0047315Y0059052D01*
X0042001Y0059052D01*
X0042001Y0068500D01*
X0047315Y0068500D01*
X0047315Y0060823D02*
X0042001Y0060823D01*
X0042001Y0062594D02*
X0047315Y0062594D01*
X0047315Y0064365D02*
X0042001Y0064365D01*
X0042001Y0066136D02*
X0047315Y0066136D01*
X0047315Y0067907D02*
X0042001Y0067907D01*
X0173104Y0107084D02*
X0173104Y0116532D01*
X0178418Y0116532D01*
X0178418Y0107084D01*
X0173104Y0107084D01*
X0173104Y0108855D02*
X0178418Y0108855D01*
X0178418Y0110626D02*
X0173104Y0110626D01*
X0173104Y0112397D02*
X0178418Y0112397D01*
X0178418Y0114168D02*
X0173104Y0114168D01*
X0173104Y0115939D02*
X0178418Y0115939D01*
X0181765Y0129919D02*
X0181765Y0139367D01*
X0187079Y0139367D01*
X0187079Y0129919D01*
X0181765Y0129919D01*
X0181765Y0131690D02*
X0187079Y0131690D01*
X0187079Y0133461D02*
X0181765Y0133461D01*
X0181765Y0135232D02*
X0187079Y0135232D01*
X0187079Y0137003D02*
X0181765Y0137003D01*
X0181765Y0138774D02*
X0187079Y0138774D01*
X0173104Y0177950D02*
X0173104Y0187398D01*
X0178418Y0187398D01*
X0178418Y0177950D01*
X0173104Y0177950D01*
X0173104Y0179721D02*
X0178418Y0179721D01*
X0178418Y0181492D02*
X0173104Y0181492D01*
X0173104Y0183263D02*
X0178418Y0183263D01*
X0178418Y0185034D02*
X0173104Y0185034D01*
X0173104Y0186805D02*
X0178418Y0186805D01*
X0181765Y0068500D02*
X0181765Y0059052D01*
X0181765Y0068500D02*
X0187079Y0068500D01*
X0187079Y0059052D01*
X0181765Y0059052D01*
X0181765Y0060823D02*
X0187079Y0060823D01*
X0187079Y0062594D02*
X0181765Y0062594D01*
X0181765Y0064365D02*
X0187079Y0064365D01*
X0187079Y0066136D02*
X0181765Y0066136D01*
X0181765Y0067907D02*
X0187079Y0067907D01*
D12*
X0173398Y0082674D02*
X0173398Y0092910D01*
X0186784Y0092910D01*
X0186784Y0082674D01*
X0173398Y0082674D01*
X0173398Y0092909D02*
X0186784Y0092909D01*
X0173398Y0153540D02*
X0173398Y0163776D01*
X0186784Y0163776D01*
X0186784Y0153540D01*
X0173398Y0153540D01*
X0173398Y0163775D02*
X0186784Y0163775D01*
X0047021Y0163776D02*
X0047021Y0153540D01*
X0033635Y0153540D01*
X0033635Y0163776D01*
X0047021Y0163776D01*
X0047021Y0163775D02*
X0033635Y0163775D01*
X0047021Y0092910D02*
X0047021Y0082674D01*
X0033635Y0082674D01*
X0033635Y0092910D01*
X0047021Y0092910D01*
X0047021Y0092909D02*
X0033635Y0092909D01*
D13*
X0138813Y0109924D03*
X0150624Y0109924D03*
X0150624Y0122719D03*
X0138813Y0122719D03*
D14*
X0144718Y0109924D03*
D15*
X0144718Y0119274D03*
D16*
X0139425Y0133907D03*
X0150449Y0133907D03*
D17*
X0121681Y0128484D03*
X0121681Y0109587D03*
D18*
X0108412Y0136656D03*
X0084790Y0136656D03*
D19*
X0107260Y0093436D03*
X0107260Y0059972D03*
D20*
X0102926Y0174406D03*
X0084028Y0174406D03*
D21*
X0083831Y0174406D01*
X0083831Y0182280D01*
X0064540Y0209839D01*
X0062600Y0182585D02*
X0046939Y0182585D01*
X0035997Y0182674D01*
X0062600Y0182585D02*
X0069500Y0174874D01*
X0069500Y0128074D01*
X0074900Y0122674D01*
X0074900Y0089474D01*
X0104402Y0059972D01*
X0107260Y0059972D01*
X0089500Y0044574D02*
X0131600Y0044574D01*
X0150802Y0063776D01*
X0184422Y0063776D01*
X0175761Y0111808D02*
X0184422Y0120469D01*
X0184422Y0134643D01*
X0137000Y0121600D02*
X0127446Y0122719D01*
X0121681Y0128484D01*
X0108412Y0136656D01*
X0108412Y0136800D01*
X0103800Y0136800D01*
X0103800Y0174406D01*
X0102926Y0174406D01*
X0044658Y0134643D02*
X0044658Y0120469D01*
X0035997Y0111808D01*
X0044658Y0063776D02*
X0070298Y0063776D01*
X0089500Y0044574D01*
D22*
X0138813Y0122719D02*
X0138813Y0131907D01*
X0139425Y0133907D01*
X0150449Y0133907D02*
X0150624Y0131907D01*
X0150624Y0122719D01*
D23*
X0138813Y0122719D02*
X0137000Y0121600D01*
D24*
X0015927Y0018058D02*
X0013900Y0020085D01*
X0012467Y0022567D01*
X0011725Y0025335D01*
X0011631Y0026768D01*
X0011631Y0219682D01*
X0011725Y0221115D01*
X0012467Y0223884D01*
X0013900Y0226366D01*
X0015927Y0228393D01*
X0018409Y0229826D01*
X0021178Y0230567D01*
X0022611Y0230661D01*
X0193810Y0230661D01*
X0195023Y0230532D01*
X0197388Y0229794D01*
X0199481Y0228469D01*
X0201160Y0226648D01*
X0202310Y0224454D01*
X0202853Y0222037D01*
X0202882Y0220889D01*
X0202882Y0220739D01*
X0202862Y0220239D01*
X0202882Y0220184D01*
X0202882Y0026768D01*
X0202788Y0025335D01*
X0202046Y0022567D01*
X0200613Y0020085D01*
X0198586Y0018058D01*
X0196104Y0016625D01*
X0193335Y0015883D01*
X0191902Y0015789D01*
X0022611Y0015789D01*
X0021178Y0015883D01*
X0018409Y0016625D01*
X0015927Y0018058D01*
X0015579Y0018406D02*
X0018474Y0018406D01*
X0019302Y0018063D02*
X0021983Y0018063D01*
X0024459Y0019089D01*
X0026354Y0020984D01*
X0027380Y0023460D01*
X0027380Y0026140D01*
X0026354Y0028616D01*
X0024459Y0030511D01*
X0021983Y0031537D01*
X0019302Y0031537D01*
X0016826Y0030511D01*
X0014931Y0028616D01*
X0013906Y0026140D01*
X0013906Y0023460D01*
X0014931Y0020984D01*
X0016826Y0019089D01*
X0019302Y0018063D01*
X0018093Y0016807D02*
X0196421Y0016807D01*
X0196039Y0018406D02*
X0198934Y0018406D01*
X0197687Y0019089D02*
X0199582Y0020984D01*
X0200608Y0023460D01*
X0200608Y0026140D01*
X0199582Y0028616D01*
X0197687Y0030511D01*
X0195211Y0031537D01*
X0192531Y0031537D01*
X0190055Y0030511D01*
X0188160Y0028616D01*
X0187134Y0026140D01*
X0187134Y0023460D01*
X0188160Y0020984D01*
X0190055Y0019089D01*
X0192531Y0018063D01*
X0195211Y0018063D01*
X0197687Y0019089D01*
X0198603Y0020004D02*
X0200533Y0020004D01*
X0199839Y0021603D02*
X0201490Y0021603D01*
X0202216Y0023201D02*
X0200501Y0023201D01*
X0200608Y0024800D02*
X0202645Y0024800D01*
X0202858Y0026399D02*
X0200501Y0026399D01*
X0199839Y0027997D02*
X0202882Y0027997D01*
X0202882Y0029596D02*
X0198603Y0029596D01*
X0196039Y0031194D02*
X0202882Y0031194D01*
X0202882Y0032793D02*
X0071356Y0032793D01*
X0072000Y0033437D02*
X0069525Y0030962D01*
X0066291Y0029622D01*
X0062897Y0029622D01*
X0062897Y0026235D01*
X0061557Y0023000D01*
X0059082Y0020525D01*
X0055847Y0019185D01*
X0052346Y0019185D01*
X0049112Y0020525D01*
X0046637Y0023000D01*
X0045297Y0026235D01*
X0045297Y0029622D01*
X0041924Y0029622D01*
X0038689Y0030962D01*
X0037029Y0032622D01*
X0022024Y0032622D01*
X0019893Y0033505D01*
X0014515Y0038883D01*
X0012883Y0040515D01*
X0012000Y0042646D01*
X0012000Y0202954D01*
X0012883Y0205085D01*
X0020883Y0213085D01*
X0022515Y0214717D01*
X0024646Y0215600D01*
X0036990Y0215600D01*
X0038689Y0217300D01*
X0041924Y0218639D01*
X0045299Y0218639D01*
X0045299Y0221999D01*
X0046639Y0225234D01*
X0049114Y0227709D01*
X0052349Y0229049D01*
X0055850Y0229049D01*
X0059084Y0227709D01*
X0061559Y0225234D01*
X0062899Y0221999D01*
X0062899Y0218639D01*
X0066291Y0218639D01*
X0069525Y0217300D01*
X0072000Y0214824D01*
X0073340Y0211590D01*
X0073340Y0208254D01*
X0088676Y0186345D01*
X0089172Y0185849D01*
X0089388Y0185328D01*
X0089711Y0184866D01*
X0089863Y0184182D01*
X0090131Y0183533D01*
X0090131Y0182970D01*
X0090253Y0182420D01*
X0090131Y0181729D01*
X0090131Y0180055D01*
X0090734Y0179453D01*
X0091313Y0178056D01*
X0091313Y0170757D01*
X0090734Y0169360D01*
X0089665Y0168291D01*
X0088268Y0167713D01*
X0079788Y0167713D01*
X0078392Y0168291D01*
X0077323Y0169360D01*
X0076744Y0170757D01*
X0076744Y0178056D01*
X0077323Y0179453D01*
X0077531Y0179661D01*
X0077531Y0180294D01*
X0063010Y0201039D01*
X0062899Y0201039D01*
X0062899Y0197632D01*
X0061559Y0194398D01*
X0059084Y0191922D01*
X0055850Y0190583D01*
X0052349Y0190583D01*
X0049114Y0191922D01*
X0046639Y0194398D01*
X0045299Y0197632D01*
X0045299Y0201039D01*
X0041924Y0201039D01*
X0038689Y0202379D01*
X0037068Y0204000D01*
X0028202Y0204000D01*
X0023600Y0199398D01*
X0023600Y0046202D01*
X0025580Y0044222D01*
X0037029Y0044222D01*
X0038689Y0045882D01*
X0041924Y0047222D01*
X0045297Y0047222D01*
X0045297Y0050602D01*
X0046637Y0053836D01*
X0049112Y0056311D01*
X0052346Y0057651D01*
X0055847Y0057651D01*
X0059082Y0056311D01*
X0061557Y0053836D01*
X0062897Y0050602D01*
X0062897Y0047222D01*
X0066291Y0047222D01*
X0069525Y0045882D01*
X0072000Y0043407D01*
X0073340Y0040172D01*
X0073340Y0036672D01*
X0072000Y0033437D01*
X0072396Y0034391D02*
X0202882Y0034391D01*
X0202882Y0035990D02*
X0073058Y0035990D01*
X0073340Y0037588D02*
X0202882Y0037588D01*
X0202882Y0039187D02*
X0073340Y0039187D01*
X0073086Y0040785D02*
X0086925Y0040785D01*
X0086951Y0040759D02*
X0085685Y0042025D01*
X0068434Y0059276D01*
X0050202Y0059276D01*
X0050202Y0058478D01*
X0049762Y0057417D01*
X0048950Y0056605D01*
X0047890Y0056166D01*
X0041427Y0056166D01*
X0040366Y0056605D01*
X0039554Y0057417D01*
X0039115Y0058478D01*
X0039115Y0069075D01*
X0039554Y0070135D01*
X0040366Y0070947D01*
X0041427Y0071387D01*
X0047890Y0071387D01*
X0048950Y0070947D01*
X0049762Y0070135D01*
X0050202Y0069075D01*
X0050202Y0068276D01*
X0071193Y0068276D01*
X0072847Y0067591D01*
X0091364Y0049074D01*
X0129736Y0049074D01*
X0148253Y0067591D01*
X0149907Y0068276D01*
X0178879Y0068276D01*
X0178879Y0069075D01*
X0179318Y0070135D01*
X0180130Y0070947D01*
X0181191Y0071387D01*
X0187654Y0071387D01*
X0188714Y0070947D01*
X0189526Y0070135D01*
X0189965Y0069075D01*
X0189965Y0058478D01*
X0189526Y0057417D01*
X0188714Y0056605D01*
X0187654Y0056166D01*
X0181191Y0056166D01*
X0180130Y0056605D01*
X0179318Y0057417D01*
X0178879Y0058478D01*
X0178879Y0059276D01*
X0152666Y0059276D01*
X0134149Y0040759D01*
X0132495Y0040074D01*
X0088605Y0040074D01*
X0086951Y0040759D01*
X0085326Y0042384D02*
X0072424Y0042384D01*
X0071425Y0043982D02*
X0083728Y0043982D01*
X0082129Y0045581D02*
X0069827Y0045581D01*
X0066394Y0047179D02*
X0080531Y0047179D01*
X0078932Y0048778D02*
X0062897Y0048778D01*
X0062897Y0050376D02*
X0077334Y0050376D01*
X0075735Y0051975D02*
X0062328Y0051975D01*
X0061666Y0053573D02*
X0074137Y0053573D01*
X0072538Y0055172D02*
X0060221Y0055172D01*
X0057974Y0056770D02*
X0070940Y0056770D01*
X0069341Y0058369D02*
X0050156Y0058369D01*
X0050220Y0056770D02*
X0049115Y0056770D01*
X0047972Y0055172D02*
X0023600Y0055172D01*
X0023600Y0056770D02*
X0040201Y0056770D01*
X0039160Y0058369D02*
X0023600Y0058369D01*
X0023600Y0059967D02*
X0039115Y0059967D01*
X0039115Y0061566D02*
X0023600Y0061566D01*
X0023600Y0063164D02*
X0039115Y0063164D01*
X0039115Y0064763D02*
X0023600Y0064763D01*
X0023600Y0066361D02*
X0039115Y0066361D01*
X0039115Y0067960D02*
X0023600Y0067960D01*
X0023600Y0069558D02*
X0039315Y0069558D01*
X0040872Y0071157D02*
X0023600Y0071157D01*
X0023600Y0072755D02*
X0085255Y0072755D01*
X0086853Y0071157D02*
X0048445Y0071157D01*
X0050001Y0069558D02*
X0088452Y0069558D01*
X0090050Y0067960D02*
X0071957Y0067960D01*
X0074077Y0066361D02*
X0091649Y0066361D01*
X0093247Y0064763D02*
X0075675Y0064763D01*
X0077274Y0063164D02*
X0094433Y0063164D01*
X0094433Y0063577D02*
X0094433Y0051269D01*
X0095605Y0050098D01*
X0118915Y0050098D01*
X0120087Y0051269D01*
X0120087Y0068674D01*
X0118915Y0069846D01*
X0100892Y0069846D01*
X0079400Y0091338D01*
X0079400Y0123569D01*
X0078715Y0125223D01*
X0074000Y0129938D01*
X0074000Y0174749D01*
X0074043Y0175518D01*
X0074000Y0175640D01*
X0074000Y0175769D01*
X0073705Y0176481D01*
X0073450Y0177208D01*
X0073364Y0177304D01*
X0073315Y0177423D01*
X0072770Y0177968D01*
X0066464Y0185015D01*
X0066415Y0185134D01*
X0065870Y0185679D01*
X0065357Y0186253D01*
X0065240Y0186309D01*
X0065149Y0186400D01*
X0064437Y0186695D01*
X0063743Y0187029D01*
X0063614Y0187036D01*
X0063495Y0187085D01*
X0062725Y0187085D01*
X0061956Y0187128D01*
X0061834Y0187085D01*
X0046957Y0187085D01*
X0041540Y0187129D01*
X0041540Y0187972D01*
X0041101Y0189033D01*
X0040289Y0189845D01*
X0039228Y0190284D01*
X0032765Y0190284D01*
X0031705Y0189845D01*
X0030893Y0189033D01*
X0030454Y0187972D01*
X0030454Y0177376D01*
X0030893Y0176315D01*
X0031705Y0175503D01*
X0032765Y0175064D01*
X0039228Y0175064D01*
X0040289Y0175503D01*
X0041101Y0176315D01*
X0041540Y0177376D01*
X0041540Y0178129D01*
X0046027Y0178092D01*
X0046044Y0178085D01*
X0046922Y0178085D01*
X0047798Y0178078D01*
X0047815Y0178085D01*
X0060588Y0178085D01*
X0065000Y0173155D01*
X0065000Y0127179D01*
X0065685Y0125525D01*
X0066951Y0124259D01*
X0070400Y0120810D01*
X0070400Y0088579D01*
X0071085Y0086925D01*
X0072351Y0085659D01*
X0094433Y0063577D01*
X0094433Y0061566D02*
X0078872Y0061566D01*
X0080471Y0059967D02*
X0094433Y0059967D01*
X0094433Y0058369D02*
X0082069Y0058369D01*
X0083668Y0056770D02*
X0094433Y0056770D01*
X0094433Y0055172D02*
X0085266Y0055172D01*
X0086865Y0053573D02*
X0094433Y0053573D01*
X0094433Y0051975D02*
X0088463Y0051975D01*
X0090062Y0050376D02*
X0095326Y0050376D01*
X0099581Y0071157D02*
X0180636Y0071157D01*
X0179079Y0069558D02*
X0119202Y0069558D01*
X0120087Y0067960D02*
X0149143Y0067960D01*
X0147023Y0066361D02*
X0120087Y0066361D01*
X0120087Y0064763D02*
X0145425Y0064763D01*
X0143826Y0063164D02*
X0120087Y0063164D01*
X0120087Y0061566D02*
X0142228Y0061566D01*
X0140629Y0059967D02*
X0120087Y0059967D01*
X0120087Y0058369D02*
X0139031Y0058369D01*
X0137432Y0056770D02*
X0120087Y0056770D01*
X0120087Y0055172D02*
X0135834Y0055172D01*
X0134235Y0053573D02*
X0120087Y0053573D01*
X0120087Y0051975D02*
X0132637Y0051975D01*
X0131038Y0050376D02*
X0119194Y0050376D01*
X0134175Y0040785D02*
X0202882Y0040785D01*
X0202882Y0042384D02*
X0135774Y0042384D01*
X0137372Y0043982D02*
X0202882Y0043982D01*
X0202882Y0045581D02*
X0138971Y0045581D01*
X0140569Y0047179D02*
X0202882Y0047179D01*
X0202882Y0048778D02*
X0142168Y0048778D01*
X0143766Y0050376D02*
X0202882Y0050376D01*
X0202882Y0051975D02*
X0145365Y0051975D01*
X0146963Y0053573D02*
X0202882Y0053573D01*
X0202882Y0055172D02*
X0148562Y0055172D01*
X0150160Y0056770D02*
X0179965Y0056770D01*
X0178924Y0058369D02*
X0151759Y0058369D01*
X0120087Y0084734D02*
X0120087Y0102139D01*
X0119965Y0102260D01*
X0121610Y0104102D01*
X0125403Y0104102D01*
X0126575Y0105274D01*
X0126575Y0106082D01*
X0135828Y0106264D01*
X0135828Y0106142D01*
X0137000Y0104971D01*
X0140625Y0104971D01*
X0141797Y0106142D01*
X0141797Y0107833D01*
X0141904Y0107945D01*
X0142426Y0109278D01*
X0142398Y0110710D01*
X0141824Y0112022D01*
X0141797Y0112048D01*
X0141797Y0113705D01*
X0140625Y0114876D01*
X0137000Y0114876D01*
X0135828Y0113705D01*
X0135828Y0113466D01*
X0126575Y0113284D01*
X0126575Y0113899D01*
X0125403Y0115071D01*
X0117959Y0115071D01*
X0116787Y0113899D01*
X0116787Y0109511D01*
X0111250Y0103310D01*
X0095605Y0103310D01*
X0094433Y0102139D01*
X0094433Y0084734D01*
X0095605Y0083562D01*
X0118915Y0083562D01*
X0120087Y0084734D01*
X0120087Y0085543D02*
X0202882Y0085543D01*
X0202882Y0083945D02*
X0119298Y0083945D01*
X0120087Y0087142D02*
X0202882Y0087142D01*
X0202882Y0088740D02*
X0120087Y0088740D01*
X0120087Y0090339D02*
X0202882Y0090339D01*
X0202882Y0091937D02*
X0120087Y0091937D01*
X0120087Y0093536D02*
X0202882Y0093536D01*
X0202882Y0095134D02*
X0120087Y0095134D01*
X0120087Y0096733D02*
X0202882Y0096733D01*
X0202882Y0098332D02*
X0120087Y0098332D01*
X0120087Y0099930D02*
X0202882Y0099930D01*
X0202882Y0101529D02*
X0120087Y0101529D01*
X0120739Y0103127D02*
X0202882Y0103127D01*
X0202882Y0104726D02*
X0180141Y0104726D01*
X0180053Y0104637D02*
X0180865Y0105449D01*
X0181304Y0106509D01*
X0181304Y0110987D01*
X0186971Y0116654D01*
X0188237Y0117920D01*
X0188922Y0119574D01*
X0188922Y0127679D01*
X0189526Y0128283D01*
X0189965Y0129344D01*
X0189965Y0139941D01*
X0189537Y0140974D01*
X0192331Y0140974D01*
X0193360Y0141400D01*
X0194148Y0142188D01*
X0201386Y0149426D01*
X0202174Y0150214D01*
X0202600Y0151243D01*
X0202600Y0183357D01*
X0202174Y0184386D01*
X0192174Y0194386D01*
X0191386Y0195174D01*
X0190357Y0195600D01*
X0170243Y0195600D01*
X0169214Y0195174D01*
X0163640Y0189600D01*
X0134190Y0189600D01*
X0120854Y0202936D01*
X0117992Y0206534D01*
X0118784Y0208447D01*
X0118784Y0211232D01*
X0117719Y0213805D01*
X0115749Y0215774D01*
X0113177Y0216839D01*
X0110392Y0216839D01*
X0107819Y0215774D01*
X0105850Y0213805D01*
X0105367Y0212639D01*
X0104143Y0212639D01*
X0104143Y0213840D01*
X0105308Y0214322D01*
X0107278Y0216292D01*
X0108343Y0218864D01*
X0108343Y0221649D01*
X0107278Y0224222D01*
X0105308Y0226191D01*
X0102736Y0227257D01*
X0099951Y0227257D01*
X0097378Y0226191D01*
X0095409Y0224222D01*
X0094343Y0221649D01*
X0094343Y0218864D01*
X0095409Y0216292D01*
X0097378Y0214322D01*
X0098543Y0213840D01*
X0098543Y0212639D01*
X0097335Y0212639D01*
X0096852Y0213805D01*
X0094883Y0215774D01*
X0092310Y0216839D01*
X0089526Y0216839D01*
X0086953Y0215774D01*
X0084984Y0213805D01*
X0083918Y0211232D01*
X0083918Y0208447D01*
X0084984Y0205874D01*
X0086953Y0203905D01*
X0089526Y0202839D01*
X0092310Y0202839D01*
X0094883Y0203905D01*
X0096852Y0205874D01*
X0097335Y0207039D01*
X0098543Y0207039D01*
X0098543Y0205807D01*
X0097378Y0205325D01*
X0095409Y0203356D01*
X0094343Y0200783D01*
X0094343Y0197998D01*
X0095409Y0195425D01*
X0097378Y0193456D01*
X0099951Y0192391D01*
X0102736Y0192391D01*
X0105308Y0193456D01*
X0107278Y0195425D01*
X0108343Y0197998D01*
X0108343Y0200783D01*
X0107278Y0203356D01*
X0105308Y0205325D01*
X0104143Y0205807D01*
X0104143Y0207039D01*
X0105367Y0207039D01*
X0105850Y0205874D01*
X0107819Y0203905D01*
X0110392Y0202839D01*
X0113177Y0202839D01*
X0113627Y0203026D01*
X0116325Y0199633D01*
X0116388Y0199482D01*
X0116669Y0199201D01*
X0116917Y0198890D01*
X0117060Y0198810D01*
X0131444Y0184426D01*
X0132473Y0184000D01*
X0165357Y0184000D01*
X0166386Y0184426D01*
X0167174Y0185214D01*
X0170419Y0188459D01*
X0170217Y0187972D01*
X0170217Y0183502D01*
X0148843Y0170424D01*
X0148444Y0170259D01*
X0148238Y0170053D01*
X0147991Y0169902D01*
X0147736Y0169552D01*
X0147430Y0169247D01*
X0147319Y0168979D01*
X0147148Y0168744D01*
X0147047Y0168323D01*
X0146881Y0167924D01*
X0146881Y0167634D01*
X0146813Y0167351D01*
X0146880Y0166924D01*
X0146854Y0139450D01*
X0146471Y0139450D01*
X0145299Y0138279D01*
X0145299Y0129535D01*
X0146471Y0128364D01*
X0147524Y0128364D01*
X0147524Y0122102D01*
X0147639Y0121823D01*
X0147639Y0118938D01*
X0148811Y0117766D01*
X0152436Y0117766D01*
X0153400Y0118730D01*
X0153400Y0113913D01*
X0152436Y0114876D01*
X0148811Y0114876D01*
X0147639Y0113705D01*
X0147639Y0106142D01*
X0148811Y0104971D01*
X0152436Y0104971D01*
X0153608Y0106142D01*
X0153608Y0107124D01*
X0154907Y0107124D01*
X0155936Y0107550D01*
X0157786Y0109400D01*
X0158574Y0110188D01*
X0159000Y0111217D01*
X0159000Y0119014D01*
X0161986Y0122000D01*
X0162774Y0122788D01*
X0163200Y0123817D01*
X0163200Y0137014D01*
X0167160Y0140974D01*
X0179307Y0140974D01*
X0178879Y0139941D01*
X0178879Y0129344D01*
X0179318Y0128283D01*
X0179922Y0127679D01*
X0179922Y0122333D01*
X0177007Y0119418D01*
X0172529Y0119418D01*
X0171468Y0118979D01*
X0170657Y0118167D01*
X0170217Y0117106D01*
X0170217Y0106509D01*
X0170657Y0105449D01*
X0171468Y0104637D01*
X0172529Y0104198D01*
X0178992Y0104198D01*
X0180053Y0104637D01*
X0181227Y0106324D02*
X0202882Y0106324D01*
X0202882Y0107923D02*
X0181304Y0107923D01*
X0181304Y0109521D02*
X0202882Y0109521D01*
X0202882Y0111120D02*
X0181436Y0111120D01*
X0183035Y0112718D02*
X0202882Y0112718D01*
X0202882Y0114317D02*
X0184633Y0114317D01*
X0186232Y0115915D02*
X0202882Y0115915D01*
X0202882Y0117514D02*
X0187830Y0117514D01*
X0188731Y0119112D02*
X0202882Y0119112D01*
X0202882Y0120711D02*
X0188922Y0120711D01*
X0188922Y0122309D02*
X0202882Y0122309D01*
X0202882Y0123908D02*
X0188922Y0123908D01*
X0188922Y0125506D02*
X0202882Y0125506D01*
X0202882Y0127105D02*
X0188922Y0127105D01*
X0189700Y0128703D02*
X0202882Y0128703D01*
X0202882Y0130302D02*
X0189965Y0130302D01*
X0189965Y0131900D02*
X0202882Y0131900D01*
X0202882Y0133499D02*
X0189965Y0133499D01*
X0189965Y0135097D02*
X0202882Y0135097D01*
X0202882Y0136696D02*
X0189965Y0136696D01*
X0189965Y0138294D02*
X0202882Y0138294D01*
X0202882Y0139893D02*
X0189965Y0139893D01*
X0191774Y0143774D02*
X0199800Y0151800D01*
X0199800Y0182800D01*
X0189800Y0192800D01*
X0170800Y0192800D01*
X0164800Y0186800D01*
X0133030Y0186800D01*
X0118761Y0201069D01*
X0111784Y0209839D01*
X0101800Y0209839D01*
X0101343Y0209383D01*
X0101343Y0199391D01*
X0096592Y0194242D02*
X0083148Y0194242D01*
X0082029Y0195841D02*
X0095237Y0195841D01*
X0094575Y0197439D02*
X0080910Y0197439D01*
X0079791Y0199038D02*
X0094343Y0199038D01*
X0094343Y0200636D02*
X0078672Y0200636D01*
X0077554Y0202235D02*
X0094945Y0202235D01*
X0094710Y0203833D02*
X0095887Y0203833D01*
X0096410Y0205432D02*
X0097636Y0205432D01*
X0097331Y0207030D02*
X0098543Y0207030D01*
X0100800Y0209839D02*
X0101343Y0210383D01*
X0101343Y0220257D01*
X0096678Y0215023D02*
X0095634Y0215023D01*
X0095272Y0216621D02*
X0092837Y0216621D01*
X0094610Y0218220D02*
X0067303Y0218220D01*
X0070203Y0216621D02*
X0088999Y0216621D01*
X0086202Y0215023D02*
X0071802Y0215023D01*
X0072580Y0213424D02*
X0084826Y0213424D01*
X0084164Y0211826D02*
X0073242Y0211826D01*
X0073340Y0210227D02*
X0083918Y0210227D01*
X0083918Y0208629D02*
X0073340Y0208629D01*
X0074197Y0207030D02*
X0084505Y0207030D01*
X0085426Y0205432D02*
X0075316Y0205432D01*
X0076435Y0203833D02*
X0087126Y0203833D01*
X0090918Y0209839D02*
X0100800Y0209839D01*
X0101800Y0209839D01*
X0104143Y0207030D02*
X0105371Y0207030D01*
X0105050Y0205432D02*
X0106292Y0205432D01*
X0106800Y0203833D02*
X0107992Y0203833D01*
X0107742Y0202235D02*
X0114256Y0202235D01*
X0115527Y0200636D02*
X0108343Y0200636D01*
X0108343Y0199038D02*
X0116799Y0199038D01*
X0118431Y0197439D02*
X0108112Y0197439D01*
X0107450Y0195841D02*
X0120029Y0195841D01*
X0121628Y0194242D02*
X0106094Y0194242D01*
X0103347Y0192644D02*
X0123226Y0192644D01*
X0124825Y0191045D02*
X0085386Y0191045D01*
X0086505Y0189447D02*
X0126423Y0189447D01*
X0128022Y0187848D02*
X0087624Y0187848D01*
X0088772Y0186250D02*
X0129620Y0186250D01*
X0131219Y0184651D02*
X0089759Y0184651D01*
X0090131Y0183053D02*
X0169482Y0183053D01*
X0170217Y0184651D02*
X0166611Y0184651D01*
X0168209Y0186250D02*
X0170217Y0186250D01*
X0170217Y0187848D02*
X0169808Y0187848D01*
X0166684Y0192644D02*
X0131146Y0192644D01*
X0129548Y0194242D02*
X0168282Y0194242D01*
X0165085Y0191045D02*
X0132745Y0191045D01*
X0127949Y0195841D02*
X0202882Y0195841D01*
X0202882Y0197439D02*
X0126350Y0197439D01*
X0124752Y0199038D02*
X0202882Y0199038D01*
X0202882Y0200636D02*
X0123153Y0200636D01*
X0121555Y0202235D02*
X0202882Y0202235D01*
X0202882Y0203833D02*
X0120140Y0203833D01*
X0118868Y0205432D02*
X0202882Y0205432D01*
X0202882Y0207030D02*
X0118197Y0207030D01*
X0118784Y0208629D02*
X0202882Y0208629D01*
X0202882Y0210227D02*
X0118784Y0210227D01*
X0118538Y0211826D02*
X0202882Y0211826D01*
X0202882Y0213424D02*
X0117876Y0213424D01*
X0116500Y0215023D02*
X0192267Y0215023D01*
X0192531Y0214913D02*
X0195211Y0214913D01*
X0197687Y0215939D01*
X0199582Y0217834D01*
X0200608Y0220310D01*
X0200608Y0222990D01*
X0199582Y0225467D01*
X0197687Y0227362D01*
X0195211Y0228387D01*
X0192531Y0228387D01*
X0190055Y0227362D01*
X0188160Y0225467D01*
X0187134Y0222990D01*
X0187134Y0220310D01*
X0188160Y0217834D01*
X0190055Y0215939D01*
X0192531Y0214913D01*
X0195475Y0215023D02*
X0202882Y0215023D01*
X0202882Y0216621D02*
X0198369Y0216621D01*
X0199742Y0218220D02*
X0202882Y0218220D01*
X0202882Y0219818D02*
X0200404Y0219818D01*
X0200608Y0221417D02*
X0202869Y0221417D01*
X0202633Y0223015D02*
X0200598Y0223015D01*
X0199935Y0224614D02*
X0202226Y0224614D01*
X0201388Y0226212D02*
X0198836Y0226212D01*
X0200088Y0227811D02*
X0196603Y0227811D01*
X0197996Y0229409D02*
X0017688Y0229409D01*
X0017911Y0227811D02*
X0015346Y0227811D01*
X0016826Y0227362D02*
X0014931Y0225467D01*
X0013906Y0222990D01*
X0013906Y0220310D01*
X0014931Y0217834D01*
X0016826Y0215939D01*
X0019302Y0214913D01*
X0021983Y0214913D01*
X0024459Y0215939D01*
X0026354Y0217834D01*
X0027380Y0220310D01*
X0027380Y0222990D01*
X0026354Y0225467D01*
X0024459Y0227362D01*
X0021983Y0228387D01*
X0019302Y0228387D01*
X0016826Y0227362D01*
X0015677Y0226212D02*
X0013812Y0226212D01*
X0014578Y0224614D02*
X0012889Y0224614D01*
X0012235Y0223015D02*
X0013916Y0223015D01*
X0013906Y0221417D02*
X0011806Y0221417D01*
X0011640Y0219818D02*
X0014109Y0219818D01*
X0014771Y0218220D02*
X0011631Y0218220D01*
X0011631Y0216621D02*
X0016144Y0216621D01*
X0019038Y0215023D02*
X0011631Y0215023D01*
X0011631Y0213424D02*
X0021222Y0213424D01*
X0022247Y0215023D02*
X0023253Y0215023D01*
X0025141Y0216621D02*
X0038011Y0216621D01*
X0040911Y0218220D02*
X0026514Y0218220D01*
X0027176Y0219818D02*
X0045299Y0219818D01*
X0045299Y0221417D02*
X0027380Y0221417D01*
X0027369Y0223015D02*
X0045720Y0223015D01*
X0046382Y0224614D02*
X0026707Y0224614D01*
X0025608Y0226212D02*
X0047618Y0226212D01*
X0049360Y0227811D02*
X0023374Y0227811D01*
X0019623Y0211826D02*
X0011631Y0211826D01*
X0011631Y0210227D02*
X0018025Y0210227D01*
X0016426Y0208629D02*
X0011631Y0208629D01*
X0011631Y0207030D02*
X0014828Y0207030D01*
X0013229Y0205432D02*
X0011631Y0205432D01*
X0011631Y0203833D02*
X0012364Y0203833D01*
X0012000Y0202235D02*
X0011631Y0202235D01*
X0011631Y0200636D02*
X0012000Y0200636D01*
X0012000Y0199038D02*
X0011631Y0199038D01*
X0011631Y0197439D02*
X0012000Y0197439D01*
X0012000Y0195841D02*
X0011631Y0195841D01*
X0011631Y0194242D02*
X0012000Y0194242D01*
X0012000Y0192644D02*
X0011631Y0192644D01*
X0011631Y0191045D02*
X0012000Y0191045D01*
X0012000Y0189447D02*
X0011631Y0189447D01*
X0011631Y0187848D02*
X0012000Y0187848D01*
X0012000Y0186250D02*
X0011631Y0186250D01*
X0011631Y0184651D02*
X0012000Y0184651D01*
X0012000Y0183053D02*
X0011631Y0183053D01*
X0011631Y0181454D02*
X0012000Y0181454D01*
X0012000Y0179856D02*
X0011631Y0179856D01*
X0011631Y0178257D02*
X0012000Y0178257D01*
X0012000Y0176659D02*
X0011631Y0176659D01*
X0011631Y0175060D02*
X0012000Y0175060D01*
X0012000Y0173462D02*
X0011631Y0173462D01*
X0011631Y0171863D02*
X0012000Y0171863D01*
X0012000Y0170265D02*
X0011631Y0170265D01*
X0011631Y0168666D02*
X0012000Y0168666D01*
X0012000Y0167068D02*
X0011631Y0167068D01*
X0011631Y0165469D02*
X0012000Y0165469D01*
X0012000Y0163870D02*
X0011631Y0163870D01*
X0011631Y0162272D02*
X0012000Y0162272D01*
X0012000Y0160673D02*
X0011631Y0160673D01*
X0011631Y0159075D02*
X0012000Y0159075D01*
X0012000Y0157476D02*
X0011631Y0157476D01*
X0011631Y0155878D02*
X0012000Y0155878D01*
X0012000Y0154279D02*
X0011631Y0154279D01*
X0011631Y0152681D02*
X0012000Y0152681D01*
X0012000Y0151082D02*
X0011631Y0151082D01*
X0011631Y0149484D02*
X0012000Y0149484D01*
X0012000Y0147885D02*
X0011631Y0147885D01*
X0011631Y0146287D02*
X0012000Y0146287D01*
X0012000Y0144688D02*
X0011631Y0144688D01*
X0011631Y0143090D02*
X0012000Y0143090D01*
X0012000Y0141491D02*
X0011631Y0141491D01*
X0011631Y0139893D02*
X0012000Y0139893D01*
X0012000Y0138294D02*
X0011631Y0138294D01*
X0011631Y0136696D02*
X0012000Y0136696D01*
X0012000Y0135097D02*
X0011631Y0135097D01*
X0011631Y0133499D02*
X0012000Y0133499D01*
X0012000Y0131900D02*
X0011631Y0131900D01*
X0011631Y0130302D02*
X0012000Y0130302D01*
X0012000Y0128703D02*
X0011631Y0128703D01*
X0011631Y0127105D02*
X0012000Y0127105D01*
X0012000Y0125506D02*
X0011631Y0125506D01*
X0011631Y0123908D02*
X0012000Y0123908D01*
X0012000Y0122309D02*
X0011631Y0122309D01*
X0011631Y0120711D02*
X0012000Y0120711D01*
X0012000Y0119112D02*
X0011631Y0119112D01*
X0011631Y0117514D02*
X0012000Y0117514D01*
X0012000Y0115915D02*
X0011631Y0115915D01*
X0011631Y0114317D02*
X0012000Y0114317D01*
X0012000Y0112718D02*
X0011631Y0112718D01*
X0011631Y0111120D02*
X0012000Y0111120D01*
X0012000Y0109521D02*
X0011631Y0109521D01*
X0011631Y0107923D02*
X0012000Y0107923D01*
X0012000Y0106324D02*
X0011631Y0106324D01*
X0011631Y0104726D02*
X0012000Y0104726D01*
X0012000Y0103127D02*
X0011631Y0103127D01*
X0011631Y0101529D02*
X0012000Y0101529D01*
X0012000Y0099930D02*
X0011631Y0099930D01*
X0011631Y0098332D02*
X0012000Y0098332D01*
X0012000Y0096733D02*
X0011631Y0096733D01*
X0011631Y0095134D02*
X0012000Y0095134D01*
X0012000Y0093536D02*
X0011631Y0093536D01*
X0011631Y0091937D02*
X0012000Y0091937D01*
X0012000Y0090339D02*
X0011631Y0090339D01*
X0011631Y0088740D02*
X0012000Y0088740D01*
X0012000Y0087142D02*
X0011631Y0087142D01*
X0011631Y0085543D02*
X0012000Y0085543D01*
X0012000Y0083945D02*
X0011631Y0083945D01*
X0011631Y0082346D02*
X0012000Y0082346D01*
X0012000Y0080748D02*
X0011631Y0080748D01*
X0011631Y0079149D02*
X0012000Y0079149D01*
X0012000Y0077551D02*
X0011631Y0077551D01*
X0011631Y0075952D02*
X0012000Y0075952D01*
X0012000Y0074354D02*
X0011631Y0074354D01*
X0011631Y0072755D02*
X0012000Y0072755D01*
X0012000Y0071157D02*
X0011631Y0071157D01*
X0011631Y0069558D02*
X0012000Y0069558D01*
X0012000Y0067960D02*
X0011631Y0067960D01*
X0011631Y0066361D02*
X0012000Y0066361D01*
X0012000Y0064763D02*
X0011631Y0064763D01*
X0011631Y0063164D02*
X0012000Y0063164D01*
X0012000Y0061566D02*
X0011631Y0061566D01*
X0011631Y0059967D02*
X0012000Y0059967D01*
X0012000Y0058369D02*
X0011631Y0058369D01*
X0011631Y0056770D02*
X0012000Y0056770D01*
X0012000Y0055172D02*
X0011631Y0055172D01*
X0011631Y0053573D02*
X0012000Y0053573D01*
X0012000Y0051975D02*
X0011631Y0051975D01*
X0011631Y0050376D02*
X0012000Y0050376D01*
X0012000Y0048778D02*
X0011631Y0048778D01*
X0011631Y0047179D02*
X0012000Y0047179D01*
X0012000Y0045581D02*
X0011631Y0045581D01*
X0011631Y0043982D02*
X0012000Y0043982D01*
X0012109Y0042384D02*
X0011631Y0042384D01*
X0011631Y0040785D02*
X0012771Y0040785D01*
X0011631Y0039187D02*
X0014211Y0039187D01*
X0015809Y0037588D02*
X0011631Y0037588D01*
X0011631Y0035990D02*
X0017408Y0035990D01*
X0019006Y0034391D02*
X0011631Y0034391D01*
X0011631Y0032793D02*
X0021613Y0032793D01*
X0022811Y0031194D02*
X0038457Y0031194D01*
X0045297Y0029596D02*
X0025375Y0029596D01*
X0026610Y0027997D02*
X0045297Y0027997D01*
X0045297Y0026399D02*
X0027272Y0026399D01*
X0027380Y0024800D02*
X0045891Y0024800D01*
X0046553Y0023201D02*
X0027272Y0023201D01*
X0026610Y0021603D02*
X0048034Y0021603D01*
X0050368Y0020004D02*
X0025375Y0020004D01*
X0022811Y0018406D02*
X0191703Y0018406D01*
X0189139Y0020004D02*
X0057826Y0020004D01*
X0060160Y0021603D02*
X0187903Y0021603D01*
X0187241Y0023201D02*
X0061640Y0023201D01*
X0062303Y0024800D02*
X0187134Y0024800D01*
X0187241Y0026399D02*
X0062897Y0026399D01*
X0062897Y0027997D02*
X0187903Y0027997D01*
X0189139Y0029596D02*
X0062897Y0029596D01*
X0069757Y0031194D02*
X0191703Y0031194D01*
X0188879Y0056770D02*
X0202882Y0056770D01*
X0202882Y0058369D02*
X0189920Y0058369D01*
X0189965Y0059967D02*
X0202882Y0059967D01*
X0202882Y0061566D02*
X0189965Y0061566D01*
X0189965Y0063164D02*
X0202882Y0063164D01*
X0202882Y0064763D02*
X0189965Y0064763D01*
X0189965Y0066361D02*
X0202882Y0066361D01*
X0202882Y0067960D02*
X0189965Y0067960D01*
X0189765Y0069558D02*
X0202882Y0069558D01*
X0202882Y0071157D02*
X0188208Y0071157D01*
X0202882Y0072755D02*
X0097983Y0072755D01*
X0096384Y0074354D02*
X0202882Y0074354D01*
X0202882Y0075952D02*
X0094786Y0075952D01*
X0093187Y0077551D02*
X0202882Y0077551D01*
X0202882Y0079149D02*
X0091589Y0079149D01*
X0089990Y0080748D02*
X0202882Y0080748D01*
X0202882Y0082346D02*
X0088392Y0082346D01*
X0086793Y0083945D02*
X0095222Y0083945D01*
X0094433Y0085543D02*
X0085195Y0085543D01*
X0083596Y0087142D02*
X0094433Y0087142D01*
X0094433Y0088740D02*
X0081998Y0088740D01*
X0080399Y0090339D02*
X0094433Y0090339D01*
X0094433Y0091937D02*
X0079400Y0091937D01*
X0079400Y0093536D02*
X0094433Y0093536D01*
X0094433Y0095134D02*
X0079400Y0095134D01*
X0079400Y0096733D02*
X0094433Y0096733D01*
X0094433Y0098332D02*
X0079400Y0098332D01*
X0079400Y0099930D02*
X0094433Y0099930D01*
X0094433Y0101529D02*
X0079400Y0101529D01*
X0079400Y0103127D02*
X0095421Y0103127D01*
X0079400Y0104726D02*
X0112514Y0104726D01*
X0113942Y0106324D02*
X0079400Y0106324D01*
X0079400Y0107923D02*
X0115369Y0107923D01*
X0116787Y0109521D02*
X0079400Y0109521D01*
X0079400Y0111120D02*
X0116787Y0111120D01*
X0116787Y0112718D02*
X0079400Y0112718D01*
X0079400Y0114317D02*
X0117205Y0114317D01*
X0123091Y0120711D02*
X0079400Y0120711D01*
X0079400Y0122309D02*
X0121492Y0122309D01*
X0120801Y0123000D02*
X0117959Y0123000D01*
X0116787Y0124172D01*
X0116787Y0126213D01*
X0107553Y0131900D01*
X0100103Y0131900D01*
X0098931Y0133072D01*
X0098931Y0140240D01*
X0099300Y0140609D01*
X0099300Y0169513D01*
X0098613Y0169513D01*
X0097442Y0170684D01*
X0097442Y0178128D01*
X0098613Y0179300D01*
X0107239Y0179300D01*
X0108410Y0178128D01*
X0108410Y0170684D01*
X0108300Y0170574D01*
X0108300Y0141412D01*
X0116721Y0141412D01*
X0117892Y0140240D01*
X0117892Y0136102D01*
X0121357Y0133968D01*
X0125403Y0133968D01*
X0126575Y0132797D01*
X0126575Y0129955D01*
X0129523Y0127006D01*
X0135713Y0126282D01*
X0135713Y0128364D01*
X0135447Y0128364D01*
X0134276Y0129535D01*
X0134276Y0138279D01*
X0135447Y0139450D01*
X0143403Y0139450D01*
X0144575Y0138279D01*
X0144575Y0129535D01*
X0143403Y0128364D01*
X0141913Y0128364D01*
X0141913Y0122102D01*
X0141797Y0121823D01*
X0141797Y0118938D01*
X0140625Y0117766D01*
X0139406Y0117766D01*
X0139088Y0117514D01*
X0137366Y0117026D01*
X0127184Y0118219D01*
X0126551Y0118219D01*
X0126302Y0118322D01*
X0126034Y0118354D01*
X0125482Y0118662D01*
X0124897Y0118904D01*
X0124707Y0119095D01*
X0124471Y0119226D01*
X0124079Y0119723D01*
X0120801Y0123000D01*
X0117051Y0123908D02*
X0079260Y0123908D01*
X0078432Y0125506D02*
X0116787Y0125506D01*
X0115340Y0127105D02*
X0076833Y0127105D01*
X0075235Y0128703D02*
X0112744Y0128703D01*
X0110148Y0130302D02*
X0074000Y0130302D01*
X0074000Y0131900D02*
X0100103Y0131900D01*
X0098931Y0133499D02*
X0074000Y0133499D01*
X0074000Y0135097D02*
X0098931Y0135097D01*
X0098931Y0136696D02*
X0074000Y0136696D01*
X0074000Y0138294D02*
X0098931Y0138294D01*
X0098931Y0139893D02*
X0074000Y0139893D01*
X0074000Y0141491D02*
X0099300Y0141491D01*
X0099300Y0143090D02*
X0074000Y0143090D01*
X0074000Y0144688D02*
X0099300Y0144688D01*
X0099300Y0146287D02*
X0074000Y0146287D01*
X0074000Y0147885D02*
X0099300Y0147885D01*
X0099300Y0149484D02*
X0074000Y0149484D01*
X0074000Y0151082D02*
X0099300Y0151082D01*
X0099300Y0152681D02*
X0074000Y0152681D01*
X0074000Y0154279D02*
X0099300Y0154279D01*
X0099300Y0155878D02*
X0074000Y0155878D01*
X0074000Y0157476D02*
X0099300Y0157476D01*
X0099300Y0159075D02*
X0074000Y0159075D01*
X0074000Y0160673D02*
X0099300Y0160673D01*
X0099300Y0162272D02*
X0074000Y0162272D01*
X0074000Y0163870D02*
X0099300Y0163870D01*
X0099300Y0165469D02*
X0074000Y0165469D01*
X0074000Y0167068D02*
X0099300Y0167068D01*
X0099300Y0168666D02*
X0090040Y0168666D01*
X0091109Y0170265D02*
X0097861Y0170265D01*
X0097442Y0171863D02*
X0091313Y0171863D01*
X0091313Y0173462D02*
X0097442Y0173462D01*
X0097442Y0175060D02*
X0091313Y0175060D01*
X0091313Y0176659D02*
X0097442Y0176659D01*
X0097570Y0178257D02*
X0091229Y0178257D01*
X0090331Y0179856D02*
X0164257Y0179856D01*
X0161645Y0178257D02*
X0108282Y0178257D01*
X0108410Y0176659D02*
X0159033Y0176659D01*
X0156420Y0175060D02*
X0108410Y0175060D01*
X0108410Y0173462D02*
X0153808Y0173462D01*
X0151196Y0171863D02*
X0108410Y0171863D01*
X0108300Y0170265D02*
X0148458Y0170265D01*
X0147129Y0168666D02*
X0108300Y0168666D01*
X0108300Y0167068D02*
X0146857Y0167068D01*
X0146879Y0165469D02*
X0108300Y0165469D01*
X0108300Y0163870D02*
X0146877Y0163870D01*
X0146876Y0162272D02*
X0108300Y0162272D01*
X0108300Y0160673D02*
X0146874Y0160673D01*
X0146873Y0159075D02*
X0108300Y0159075D01*
X0108300Y0157476D02*
X0146871Y0157476D01*
X0146870Y0155878D02*
X0108300Y0155878D01*
X0108300Y0154279D02*
X0146868Y0154279D01*
X0146867Y0152681D02*
X0108300Y0152681D01*
X0108300Y0151082D02*
X0146865Y0151082D01*
X0146864Y0149484D02*
X0108300Y0149484D01*
X0108300Y0147885D02*
X0146862Y0147885D01*
X0146861Y0146287D02*
X0108300Y0146287D01*
X0108300Y0144688D02*
X0146859Y0144688D01*
X0146858Y0143090D02*
X0108300Y0143090D01*
X0108300Y0141491D02*
X0146856Y0141491D01*
X0146854Y0139893D02*
X0117892Y0139893D01*
X0117892Y0138294D02*
X0134291Y0138294D01*
X0134276Y0136696D02*
X0117892Y0136696D01*
X0119524Y0135097D02*
X0134276Y0135097D01*
X0134276Y0133499D02*
X0125873Y0133499D01*
X0126575Y0131900D02*
X0134276Y0131900D01*
X0134276Y0130302D02*
X0126575Y0130302D01*
X0127826Y0128703D02*
X0135108Y0128703D01*
X0135713Y0127105D02*
X0129425Y0127105D01*
X0124676Y0119112D02*
X0079400Y0119112D01*
X0079400Y0117514D02*
X0133205Y0117514D01*
X0136440Y0114317D02*
X0126157Y0114317D01*
X0126026Y0104726D02*
X0171380Y0104726D01*
X0170294Y0106324D02*
X0153608Y0106324D01*
X0156308Y0107923D02*
X0170217Y0107923D01*
X0170217Y0109521D02*
X0157907Y0109521D01*
X0158960Y0111120D02*
X0170217Y0111120D01*
X0170217Y0112718D02*
X0159000Y0112718D01*
X0159000Y0114317D02*
X0170217Y0114317D01*
X0170217Y0115915D02*
X0159000Y0115915D01*
X0159000Y0117514D02*
X0170386Y0117514D01*
X0171791Y0119112D02*
X0159098Y0119112D01*
X0160696Y0120711D02*
X0178299Y0120711D01*
X0179898Y0122309D02*
X0162295Y0122309D01*
X0163200Y0123908D02*
X0179922Y0123908D01*
X0179922Y0125506D02*
X0163200Y0125506D01*
X0163200Y0127105D02*
X0179922Y0127105D01*
X0179144Y0128703D02*
X0163200Y0128703D01*
X0163200Y0130302D02*
X0178879Y0130302D01*
X0178879Y0131900D02*
X0163200Y0131900D01*
X0163200Y0133499D02*
X0178879Y0133499D01*
X0178879Y0135097D02*
X0163200Y0135097D01*
X0163200Y0136696D02*
X0178879Y0136696D01*
X0178879Y0138294D02*
X0164480Y0138294D01*
X0166079Y0139893D02*
X0178879Y0139893D01*
X0190614Y0146574D02*
X0165443Y0146574D01*
X0164414Y0146148D01*
X0163626Y0145360D01*
X0158026Y0139760D01*
X0157600Y0138731D01*
X0157600Y0125534D01*
X0153826Y0121760D01*
X0153608Y0121233D01*
X0153608Y0121823D01*
X0153724Y0122102D01*
X0153724Y0128364D01*
X0154427Y0128364D01*
X0155598Y0129535D01*
X0155598Y0138279D01*
X0154427Y0139450D01*
X0154054Y0139450D01*
X0154078Y0165186D01*
X0171267Y0175704D01*
X0171468Y0175503D01*
X0172529Y0175064D01*
X0178992Y0175064D01*
X0180053Y0175503D01*
X0180865Y0176315D01*
X0181304Y0177376D01*
X0181304Y0187972D01*
X0180865Y0189033D01*
X0180053Y0189845D01*
X0179678Y0190000D01*
X0188640Y0190000D01*
X0197000Y0181640D01*
X0197000Y0152960D01*
X0190614Y0146574D01*
X0191926Y0147885D02*
X0154062Y0147885D01*
X0154061Y0146287D02*
X0164750Y0146287D01*
X0162955Y0144688D02*
X0154059Y0144688D01*
X0154057Y0143090D02*
X0161356Y0143090D01*
X0159758Y0141491D02*
X0154056Y0141491D01*
X0154054Y0139893D02*
X0158159Y0139893D01*
X0157600Y0138294D02*
X0155583Y0138294D01*
X0155598Y0136696D02*
X0157600Y0136696D01*
X0157600Y0135097D02*
X0155598Y0135097D01*
X0155598Y0133499D02*
X0157600Y0133499D01*
X0157600Y0131900D02*
X0155598Y0131900D01*
X0155598Y0130302D02*
X0157600Y0130302D01*
X0157600Y0128703D02*
X0154766Y0128703D01*
X0153724Y0127105D02*
X0157600Y0127105D01*
X0157572Y0125506D02*
X0153724Y0125506D01*
X0153724Y0123908D02*
X0155974Y0123908D01*
X0154375Y0122309D02*
X0153724Y0122309D01*
X0156200Y0120174D02*
X0160400Y0124374D01*
X0160400Y0138174D01*
X0166000Y0143774D01*
X0191774Y0143774D01*
X0193451Y0141491D02*
X0202882Y0141491D01*
X0202882Y0143090D02*
X0195050Y0143090D01*
X0194148Y0142188D02*
X0194148Y0142188D01*
X0196648Y0144688D02*
X0202882Y0144688D01*
X0202882Y0146287D02*
X0198247Y0146287D01*
X0199845Y0147885D02*
X0202882Y0147885D01*
X0202882Y0149484D02*
X0201444Y0149484D01*
X0201386Y0149426D02*
X0201386Y0149426D01*
X0202533Y0151082D02*
X0202882Y0151082D01*
X0202882Y0152681D02*
X0202600Y0152681D01*
X0202600Y0154279D02*
X0202882Y0154279D01*
X0202882Y0155878D02*
X0202600Y0155878D01*
X0202600Y0157476D02*
X0202882Y0157476D01*
X0202882Y0159075D02*
X0202600Y0159075D01*
X0202600Y0160673D02*
X0202882Y0160673D01*
X0202882Y0162272D02*
X0202600Y0162272D01*
X0202600Y0163870D02*
X0202882Y0163870D01*
X0202882Y0165469D02*
X0202600Y0165469D01*
X0202600Y0167068D02*
X0202882Y0167068D01*
X0202882Y0168666D02*
X0202600Y0168666D01*
X0202600Y0170265D02*
X0202882Y0170265D01*
X0202882Y0171863D02*
X0202600Y0171863D01*
X0202600Y0173462D02*
X0202882Y0173462D01*
X0202882Y0175060D02*
X0202600Y0175060D01*
X0202600Y0176659D02*
X0202882Y0176659D01*
X0202882Y0178257D02*
X0202600Y0178257D01*
X0202600Y0179856D02*
X0202882Y0179856D01*
X0202882Y0181454D02*
X0202600Y0181454D01*
X0202600Y0183053D02*
X0202882Y0183053D01*
X0202882Y0184651D02*
X0201909Y0184651D01*
X0202882Y0186250D02*
X0200310Y0186250D01*
X0198712Y0187848D02*
X0202882Y0187848D01*
X0202882Y0189447D02*
X0197113Y0189447D01*
X0195515Y0191045D02*
X0202882Y0191045D01*
X0202882Y0192644D02*
X0193916Y0192644D01*
X0192318Y0194242D02*
X0202882Y0194242D01*
X0193989Y0184651D02*
X0181304Y0184651D01*
X0181304Y0183053D02*
X0195588Y0183053D01*
X0197000Y0181454D02*
X0181304Y0181454D01*
X0181304Y0179856D02*
X0197000Y0179856D01*
X0197000Y0178257D02*
X0181304Y0178257D01*
X0181007Y0176659D02*
X0197000Y0176659D01*
X0197000Y0175060D02*
X0170215Y0175060D01*
X0167603Y0173462D02*
X0197000Y0173462D01*
X0197000Y0171863D02*
X0164990Y0171863D01*
X0162378Y0170265D02*
X0197000Y0170265D01*
X0197000Y0168666D02*
X0159766Y0168666D01*
X0157153Y0167068D02*
X0197000Y0167068D01*
X0197000Y0165469D02*
X0154541Y0165469D01*
X0154077Y0163870D02*
X0197000Y0163870D01*
X0197000Y0162272D02*
X0154076Y0162272D01*
X0154074Y0160673D02*
X0197000Y0160673D01*
X0197000Y0159075D02*
X0154073Y0159075D01*
X0154071Y0157476D02*
X0197000Y0157476D01*
X0197000Y0155878D02*
X0154070Y0155878D01*
X0154068Y0154279D02*
X0197000Y0154279D01*
X0196721Y0152681D02*
X0154067Y0152681D01*
X0154065Y0151082D02*
X0195123Y0151082D01*
X0193524Y0149484D02*
X0154064Y0149484D01*
X0145315Y0138294D02*
X0144559Y0138294D01*
X0144575Y0136696D02*
X0145299Y0136696D01*
X0145299Y0135097D02*
X0144575Y0135097D01*
X0144575Y0133499D02*
X0145299Y0133499D01*
X0145299Y0131900D02*
X0144575Y0131900D01*
X0144575Y0130302D02*
X0145299Y0130302D01*
X0146131Y0128703D02*
X0143743Y0128703D01*
X0141913Y0127105D02*
X0147524Y0127105D01*
X0147524Y0125506D02*
X0141913Y0125506D01*
X0141913Y0123908D02*
X0147524Y0123908D01*
X0147524Y0122309D02*
X0141913Y0122309D01*
X0141797Y0120711D02*
X0147639Y0120711D01*
X0147639Y0119112D02*
X0141797Y0119112D01*
X0139085Y0117514D02*
X0153400Y0117514D01*
X0153400Y0115915D02*
X0079400Y0115915D01*
X0070400Y0115915D02*
X0046468Y0115915D01*
X0044870Y0114317D02*
X0070400Y0114317D01*
X0070400Y0112718D02*
X0043271Y0112718D01*
X0041673Y0111120D02*
X0070400Y0111120D01*
X0070400Y0109521D02*
X0041540Y0109521D01*
X0041540Y0110987D02*
X0041540Y0106509D01*
X0041101Y0105449D01*
X0040289Y0104637D01*
X0039228Y0104198D01*
X0032765Y0104198D01*
X0031705Y0104637D01*
X0030893Y0105449D01*
X0030454Y0106509D01*
X0030454Y0117106D01*
X0030893Y0118167D01*
X0031705Y0118979D01*
X0032765Y0119418D01*
X0037243Y0119418D01*
X0040158Y0122333D01*
X0040158Y0127679D01*
X0039554Y0128283D01*
X0039115Y0129344D01*
X0039115Y0139941D01*
X0039554Y0141002D01*
X0040366Y0141813D01*
X0041427Y0142253D01*
X0047890Y0142253D01*
X0048950Y0141813D01*
X0049762Y0141002D01*
X0050202Y0139941D01*
X0050202Y0129344D01*
X0049762Y0128283D01*
X0049158Y0127679D01*
X0049158Y0119574D01*
X0048473Y0117920D01*
X0041540Y0110987D01*
X0041540Y0107923D02*
X0070400Y0107923D01*
X0070400Y0106324D02*
X0041463Y0106324D01*
X0040378Y0104726D02*
X0070400Y0104726D01*
X0070400Y0103127D02*
X0023600Y0103127D01*
X0023600Y0101529D02*
X0070400Y0101529D01*
X0070400Y0099930D02*
X0023600Y0099930D01*
X0023600Y0098332D02*
X0070400Y0098332D01*
X0070400Y0096733D02*
X0023600Y0096733D01*
X0023600Y0095134D02*
X0070400Y0095134D01*
X0070400Y0093536D02*
X0023600Y0093536D01*
X0023600Y0091937D02*
X0070400Y0091937D01*
X0070400Y0090339D02*
X0023600Y0090339D01*
X0023600Y0088740D02*
X0070400Y0088740D01*
X0070995Y0087142D02*
X0023600Y0087142D01*
X0023600Y0085543D02*
X0072467Y0085543D01*
X0074065Y0083945D02*
X0023600Y0083945D01*
X0023600Y0082346D02*
X0075664Y0082346D01*
X0077262Y0080748D02*
X0023600Y0080748D01*
X0023600Y0079149D02*
X0078861Y0079149D01*
X0080459Y0077551D02*
X0023600Y0077551D01*
X0023600Y0075952D02*
X0082058Y0075952D01*
X0083656Y0074354D02*
X0023600Y0074354D01*
X0023600Y0053573D02*
X0046528Y0053573D01*
X0045866Y0051975D02*
X0023600Y0051975D01*
X0023600Y0050376D02*
X0045297Y0050376D01*
X0045297Y0048778D02*
X0023600Y0048778D01*
X0023600Y0047179D02*
X0041820Y0047179D01*
X0038388Y0045581D02*
X0024222Y0045581D01*
X0018474Y0031194D02*
X0011631Y0031194D01*
X0011631Y0029596D02*
X0015910Y0029596D01*
X0014675Y0027997D02*
X0011631Y0027997D01*
X0011656Y0026399D02*
X0014013Y0026399D01*
X0013906Y0024800D02*
X0011869Y0024800D01*
X0012297Y0023201D02*
X0014013Y0023201D01*
X0014675Y0021603D02*
X0013024Y0021603D01*
X0013900Y0020085D02*
X0013900Y0020085D01*
X0013980Y0020004D02*
X0015910Y0020004D01*
X0023600Y0104726D02*
X0031616Y0104726D01*
X0030530Y0106324D02*
X0023600Y0106324D01*
X0023600Y0107923D02*
X0030454Y0107923D01*
X0030454Y0109521D02*
X0023600Y0109521D01*
X0023600Y0111120D02*
X0030454Y0111120D01*
X0030454Y0112718D02*
X0023600Y0112718D01*
X0023600Y0114317D02*
X0030454Y0114317D01*
X0030454Y0115915D02*
X0023600Y0115915D01*
X0023600Y0117514D02*
X0030622Y0117514D01*
X0032027Y0119112D02*
X0023600Y0119112D01*
X0023600Y0120711D02*
X0038536Y0120711D01*
X0040134Y0122309D02*
X0023600Y0122309D01*
X0023600Y0123908D02*
X0040158Y0123908D01*
X0040158Y0125506D02*
X0023600Y0125506D01*
X0023600Y0127105D02*
X0040158Y0127105D01*
X0039380Y0128703D02*
X0023600Y0128703D01*
X0023600Y0130302D02*
X0039115Y0130302D01*
X0039115Y0131900D02*
X0023600Y0131900D01*
X0023600Y0133499D02*
X0039115Y0133499D01*
X0039115Y0135097D02*
X0023600Y0135097D01*
X0023600Y0136696D02*
X0039115Y0136696D01*
X0039115Y0138294D02*
X0023600Y0138294D01*
X0023600Y0139893D02*
X0039115Y0139893D01*
X0040044Y0141491D02*
X0023600Y0141491D01*
X0023600Y0143090D02*
X0065000Y0143090D01*
X0065000Y0144688D02*
X0023600Y0144688D01*
X0023600Y0146287D02*
X0065000Y0146287D01*
X0065000Y0147885D02*
X0023600Y0147885D01*
X0023600Y0149484D02*
X0065000Y0149484D01*
X0065000Y0151082D02*
X0023600Y0151082D01*
X0023600Y0152681D02*
X0065000Y0152681D01*
X0065000Y0154279D02*
X0023600Y0154279D01*
X0023600Y0155878D02*
X0065000Y0155878D01*
X0065000Y0157476D02*
X0023600Y0157476D01*
X0023600Y0159075D02*
X0065000Y0159075D01*
X0065000Y0160673D02*
X0023600Y0160673D01*
X0023600Y0162272D02*
X0065000Y0162272D01*
X0065000Y0163870D02*
X0023600Y0163870D01*
X0023600Y0165469D02*
X0065000Y0165469D01*
X0065000Y0167068D02*
X0023600Y0167068D01*
X0023600Y0168666D02*
X0065000Y0168666D01*
X0065000Y0170265D02*
X0023600Y0170265D01*
X0023600Y0171863D02*
X0065000Y0171863D01*
X0064725Y0173462D02*
X0023600Y0173462D01*
X0023600Y0175060D02*
X0063295Y0175060D01*
X0061865Y0176659D02*
X0041243Y0176659D01*
X0030751Y0176659D02*
X0023600Y0176659D01*
X0023600Y0178257D02*
X0030454Y0178257D01*
X0030454Y0179856D02*
X0023600Y0179856D01*
X0023600Y0181454D02*
X0030454Y0181454D01*
X0030454Y0183053D02*
X0023600Y0183053D01*
X0023600Y0184651D02*
X0030454Y0184651D01*
X0030454Y0186250D02*
X0023600Y0186250D01*
X0023600Y0187848D02*
X0030454Y0187848D01*
X0031306Y0189447D02*
X0023600Y0189447D01*
X0023600Y0191045D02*
X0051232Y0191045D01*
X0048393Y0192644D02*
X0023600Y0192644D01*
X0023600Y0194242D02*
X0046795Y0194242D01*
X0046041Y0195841D02*
X0023600Y0195841D01*
X0023600Y0197439D02*
X0045379Y0197439D01*
X0045299Y0199038D02*
X0023600Y0199038D01*
X0024839Y0200636D02*
X0045299Y0200636D01*
X0039038Y0202235D02*
X0026437Y0202235D01*
X0028036Y0203833D02*
X0037235Y0203833D01*
X0040687Y0189447D02*
X0071125Y0189447D01*
X0070006Y0191045D02*
X0056966Y0191045D01*
X0059805Y0192644D02*
X0068887Y0192644D01*
X0067768Y0194242D02*
X0061404Y0194242D01*
X0062157Y0195841D02*
X0066649Y0195841D01*
X0065530Y0197439D02*
X0062819Y0197439D01*
X0062899Y0199038D02*
X0064411Y0199038D01*
X0063292Y0200636D02*
X0062899Y0200636D01*
X0072244Y0187848D02*
X0041540Y0187848D01*
X0065359Y0186250D02*
X0073363Y0186250D01*
X0074482Y0184651D02*
X0066790Y0184651D01*
X0068220Y0183053D02*
X0075601Y0183053D01*
X0076720Y0181454D02*
X0069651Y0181454D01*
X0071081Y0179856D02*
X0077531Y0179856D01*
X0076827Y0178257D02*
X0072511Y0178257D01*
X0073643Y0176659D02*
X0076744Y0176659D01*
X0076744Y0175060D02*
X0074017Y0175060D01*
X0074000Y0173462D02*
X0076744Y0173462D01*
X0076744Y0171863D02*
X0074000Y0171863D01*
X0074000Y0170265D02*
X0076948Y0170265D01*
X0078017Y0168666D02*
X0074000Y0168666D01*
X0090131Y0181454D02*
X0166870Y0181454D01*
X0181304Y0186250D02*
X0192391Y0186250D01*
X0190792Y0187848D02*
X0181304Y0187848D01*
X0180451Y0189447D02*
X0189194Y0189447D01*
X0189372Y0216621D02*
X0113703Y0216621D01*
X0109866Y0216621D02*
X0107414Y0216621D01*
X0107068Y0215023D02*
X0106009Y0215023D01*
X0105692Y0213424D02*
X0104143Y0213424D01*
X0098543Y0213424D02*
X0097010Y0213424D01*
X0094343Y0219818D02*
X0062899Y0219818D01*
X0062899Y0221417D02*
X0094343Y0221417D01*
X0094909Y0223015D02*
X0062478Y0223015D01*
X0061816Y0224614D02*
X0095801Y0224614D01*
X0097430Y0226212D02*
X0060581Y0226212D01*
X0058838Y0227811D02*
X0191139Y0227811D01*
X0188905Y0226212D02*
X0105257Y0226212D01*
X0106886Y0224614D02*
X0187806Y0224614D01*
X0187144Y0223015D02*
X0107777Y0223015D01*
X0108343Y0221417D02*
X0187134Y0221417D01*
X0187338Y0219818D02*
X0108343Y0219818D01*
X0108076Y0218220D02*
X0188000Y0218220D01*
X0099340Y0192644D02*
X0084267Y0192644D01*
X0065000Y0141491D02*
X0049273Y0141491D01*
X0050202Y0139893D02*
X0065000Y0139893D01*
X0065000Y0138294D02*
X0050202Y0138294D01*
X0050202Y0136696D02*
X0065000Y0136696D01*
X0065000Y0135097D02*
X0050202Y0135097D01*
X0050202Y0133499D02*
X0065000Y0133499D01*
X0065000Y0131900D02*
X0050202Y0131900D01*
X0050202Y0130302D02*
X0065000Y0130302D01*
X0065000Y0128703D02*
X0049936Y0128703D01*
X0049158Y0127105D02*
X0065031Y0127105D01*
X0065704Y0125506D02*
X0049158Y0125506D01*
X0049158Y0123908D02*
X0067302Y0123908D01*
X0068901Y0122309D02*
X0049158Y0122309D01*
X0049158Y0120711D02*
X0070400Y0120711D01*
X0070400Y0119112D02*
X0048967Y0119112D01*
X0048067Y0117514D02*
X0070400Y0117514D01*
X0141185Y0114317D02*
X0148251Y0114317D01*
X0147639Y0112718D02*
X0141797Y0112718D01*
X0142219Y0111120D02*
X0147639Y0111120D01*
X0147639Y0109521D02*
X0142421Y0109521D01*
X0141883Y0107923D02*
X0147639Y0107923D01*
X0147639Y0106324D02*
X0141797Y0106324D01*
X0150624Y0109924D02*
X0154350Y0109924D01*
X0156200Y0111774D01*
X0156200Y0120174D01*
X0153400Y0114317D02*
X0152996Y0114317D01*
D25*
X0167800Y0100800D03*
X0167800Y0094800D03*
X0173800Y0094800D03*
X0173800Y0100800D03*
X0179800Y0100800D03*
X0179800Y0094800D03*
X0179800Y0088800D03*
X0179800Y0082800D03*
X0179800Y0076800D03*
X0173800Y0076800D03*
X0167800Y0076800D03*
X0167800Y0082800D03*
X0167800Y0088800D03*
X0173800Y0088800D03*
X0173800Y0082800D03*
X0162800Y0082800D03*
X0162800Y0088800D03*
X0162800Y0094800D03*
X0185800Y0094800D03*
X0185800Y0100800D03*
X0191800Y0100800D03*
X0191800Y0094800D03*
X0196800Y0094800D03*
X0196800Y0088800D03*
X0191800Y0088800D03*
X0191800Y0082800D03*
X0196800Y0082800D03*
X0191800Y0076800D03*
X0185800Y0076800D03*
X0185800Y0082800D03*
X0185800Y0088800D03*
X0183800Y0148800D03*
X0183800Y0153800D03*
X0178800Y0153800D03*
X0178800Y0148800D03*
X0173800Y0148800D03*
X0173800Y0153800D03*
X0168800Y0153800D03*
X0168800Y0148800D03*
X0163800Y0153800D03*
X0163800Y0158800D03*
X0163800Y0163800D03*
X0168800Y0163800D03*
X0168800Y0158800D03*
X0173800Y0158800D03*
X0173800Y0163800D03*
X0173800Y0168800D03*
X0173800Y0173800D03*
X0168800Y0168800D03*
X0178800Y0168800D03*
X0178800Y0163800D03*
X0178800Y0158800D03*
X0183800Y0158800D03*
X0183800Y0163800D03*
X0183800Y0168800D03*
X0183800Y0173800D03*
X0178800Y0173800D03*
X0188800Y0173800D03*
X0188800Y0168800D03*
X0188800Y0163800D03*
X0188800Y0158800D03*
X0188800Y0153800D03*
X0188800Y0148800D03*
X0193800Y0153800D03*
X0193800Y0158800D03*
X0193800Y0163800D03*
X0193800Y0168800D03*
X0055800Y0095800D03*
X0050800Y0095800D03*
X0050800Y0100800D03*
X0044800Y0100800D03*
X0044800Y0095800D03*
X0044800Y0089800D03*
X0044800Y0083800D03*
X0044800Y0077800D03*
X0044800Y0072800D03*
X0038800Y0072800D03*
X0038800Y0077800D03*
X0038800Y0083800D03*
X0032800Y0083800D03*
X0032800Y0077800D03*
X0032800Y0072800D03*
X0026800Y0077800D03*
X0026800Y0083800D03*
X0026800Y0089800D03*
X0026800Y0095800D03*
X0032800Y0095800D03*
X0032800Y0100800D03*
X0038800Y0100800D03*
X0038800Y0095800D03*
X0038800Y0089800D03*
X0032800Y0089800D03*
X0050800Y0089800D03*
X0055800Y0089800D03*
X0055800Y0083800D03*
X0050800Y0083800D03*
X0050800Y0077800D03*
X0048800Y0144800D03*
X0048800Y0149800D03*
X0048800Y0154800D03*
X0048800Y0159800D03*
X0048800Y0164800D03*
X0048800Y0169800D03*
X0043800Y0169800D03*
X0043800Y0164800D03*
X0043800Y0159800D03*
X0043800Y0154800D03*
X0043800Y0149800D03*
X0043800Y0144800D03*
X0038800Y0144800D03*
X0038800Y0149800D03*
X0038800Y0154800D03*
X0038800Y0159800D03*
X0038800Y0164800D03*
X0038800Y0169800D03*
X0033800Y0169800D03*
X0033800Y0164800D03*
X0033800Y0159800D03*
X0033800Y0154800D03*
X0033800Y0149800D03*
X0033800Y0144800D03*
X0028800Y0144800D03*
X0028800Y0149800D03*
X0028800Y0154800D03*
X0028800Y0159800D03*
X0028800Y0164800D03*
X0028800Y0169800D03*
X0053800Y0169800D03*
X0053800Y0164800D03*
X0053800Y0159800D03*
X0053800Y0154800D03*
X0053800Y0149800D03*
D26*
X0107260Y0093436D02*
X0121681Y0109587D01*
X0138813Y0109924D01*
X0150449Y0133907D02*
X0150480Y0167205D01*
X0175761Y0182674D01*
D27*
X0064540Y0209839D02*
X0054107Y0209839D01*
X0054099Y0220249D01*
X0054107Y0209839D02*
X0043674Y0209839D01*
X0054107Y0209839D02*
X0054099Y0199383D01*
X0054097Y0048851D02*
X0054097Y0038719D01*
X0053800Y0038422D01*
X0043674Y0038422D01*
X0053800Y0038422D02*
X0064540Y0038422D01*
X0054097Y0048851D02*
X0054097Y0027985D01*
D28*
X0043674Y0038422D02*
X0023178Y0038422D01*
X0017800Y0043800D01*
X0017800Y0201800D01*
X0025800Y0209800D01*
X0043635Y0209800D01*
X0043674Y0209839D01*
M02*
