G75*
%MOIN*%
%OFA0B0*%
%FSLAX25Y25*%
%IPPOS*%
%LPD*%
%AMOC8*
5,1,8,0,0,1.08239X$1,22.5*
%
%ADD10C,0.07874*%
%ADD11C,0.01600*%
%ADD12C,0.10000*%
D10*
X0020643Y0024800D03*
X0193871Y0024800D03*
X0193871Y0221650D03*
X0020643Y0221650D03*
D11*
X0001800Y0238800D02*
X0001800Y0001800D01*
X0212800Y0001800D01*
X0212800Y0238800D01*
X0001800Y0238800D01*
X0001800Y0237402D02*
X0212800Y0237402D01*
X0212800Y0235803D02*
X0001800Y0235803D01*
X0001800Y0234205D02*
X0212800Y0234205D01*
X0212800Y0232606D02*
X0001800Y0232606D01*
X0001800Y0231008D02*
X0212800Y0231008D01*
X0212800Y0229409D02*
X0001800Y0229409D01*
X0001800Y0227811D02*
X0212800Y0227811D01*
X0212800Y0226212D02*
X0001800Y0226212D01*
X0001800Y0224614D02*
X0212800Y0224614D01*
X0212800Y0223015D02*
X0001800Y0223015D01*
X0001800Y0221417D02*
X0212800Y0221417D01*
X0212800Y0219818D02*
X0001800Y0219818D01*
X0001800Y0218220D02*
X0212800Y0218220D01*
X0212800Y0216621D02*
X0001800Y0216621D01*
X0001800Y0215023D02*
X0212800Y0215023D01*
X0212800Y0213424D02*
X0001800Y0213424D01*
X0001800Y0211826D02*
X0212800Y0211826D01*
X0212800Y0210227D02*
X0001800Y0210227D01*
X0001800Y0208629D02*
X0212800Y0208629D01*
X0212800Y0207030D02*
X0001800Y0207030D01*
X0001800Y0205432D02*
X0212800Y0205432D01*
X0212800Y0203833D02*
X0001800Y0203833D01*
X0001800Y0202235D02*
X0212800Y0202235D01*
X0212800Y0200636D02*
X0001800Y0200636D01*
X0001800Y0199038D02*
X0212800Y0199038D01*
X0212800Y0197439D02*
X0001800Y0197439D01*
X0001800Y0195841D02*
X0212800Y0195841D01*
X0212800Y0194242D02*
X0001800Y0194242D01*
X0001800Y0192644D02*
X0212800Y0192644D01*
X0212800Y0191045D02*
X0001800Y0191045D01*
X0001800Y0189447D02*
X0212800Y0189447D01*
X0212800Y0187848D02*
X0001800Y0187848D01*
X0001800Y0186250D02*
X0212800Y0186250D01*
X0212800Y0184651D02*
X0001800Y0184651D01*
X0001800Y0183053D02*
X0212800Y0183053D01*
X0212800Y0181454D02*
X0001800Y0181454D01*
X0001800Y0179856D02*
X0212800Y0179856D01*
X0212800Y0178257D02*
X0001800Y0178257D01*
X0001800Y0176659D02*
X0212800Y0176659D01*
X0212800Y0175060D02*
X0001800Y0175060D01*
X0001800Y0173462D02*
X0212800Y0173462D01*
X0212800Y0171863D02*
X0001800Y0171863D01*
X0001800Y0170265D02*
X0212800Y0170265D01*
X0212800Y0168666D02*
X0001800Y0168666D01*
X0001800Y0167068D02*
X0212800Y0167068D01*
X0212800Y0165469D02*
X0001800Y0165469D01*
X0001800Y0163870D02*
X0212800Y0163870D01*
X0212800Y0162272D02*
X0001800Y0162272D01*
X0001800Y0160673D02*
X0212800Y0160673D01*
X0212800Y0159075D02*
X0001800Y0159075D01*
X0001800Y0157476D02*
X0212800Y0157476D01*
X0212800Y0155878D02*
X0001800Y0155878D01*
X0001800Y0154279D02*
X0212800Y0154279D01*
X0212800Y0152681D02*
X0001800Y0152681D01*
X0001800Y0151082D02*
X0212800Y0151082D01*
X0212800Y0149484D02*
X0001800Y0149484D01*
X0001800Y0147885D02*
X0212800Y0147885D01*
X0212800Y0146287D02*
X0001800Y0146287D01*
X0001800Y0144688D02*
X0212800Y0144688D01*
X0212800Y0143090D02*
X0001800Y0143090D01*
X0001800Y0141491D02*
X0212800Y0141491D01*
X0212800Y0139893D02*
X0001800Y0139893D01*
X0001800Y0138294D02*
X0212800Y0138294D01*
X0212800Y0136696D02*
X0001800Y0136696D01*
X0001800Y0135097D02*
X0212800Y0135097D01*
X0212800Y0133499D02*
X0001800Y0133499D01*
X0001800Y0131900D02*
X0212800Y0131900D01*
X0212800Y0130302D02*
X0001800Y0130302D01*
X0001800Y0128703D02*
X0212800Y0128703D01*
X0212800Y0127105D02*
X0001800Y0127105D01*
X0001800Y0125506D02*
X0212800Y0125506D01*
X0212800Y0123908D02*
X0001800Y0123908D01*
X0001800Y0122309D02*
X0212800Y0122309D01*
X0212800Y0120711D02*
X0001800Y0120711D01*
X0001800Y0119112D02*
X0212800Y0119112D01*
X0212800Y0117514D02*
X0001800Y0117514D01*
X0001800Y0115915D02*
X0212800Y0115915D01*
X0212800Y0114317D02*
X0001800Y0114317D01*
X0001800Y0112718D02*
X0212800Y0112718D01*
X0212800Y0111120D02*
X0001800Y0111120D01*
X0001800Y0109521D02*
X0212800Y0109521D01*
X0212800Y0107923D02*
X0001800Y0107923D01*
X0001800Y0106324D02*
X0212800Y0106324D01*
X0212800Y0104726D02*
X0001800Y0104726D01*
X0001800Y0103127D02*
X0212800Y0103127D01*
X0212800Y0101529D02*
X0001800Y0101529D01*
X0001800Y0099930D02*
X0212800Y0099930D01*
X0212800Y0098332D02*
X0001800Y0098332D01*
X0001800Y0096733D02*
X0212800Y0096733D01*
X0212800Y0095134D02*
X0001800Y0095134D01*
X0001800Y0093536D02*
X0212800Y0093536D01*
X0212800Y0091937D02*
X0001800Y0091937D01*
X0001800Y0090339D02*
X0212800Y0090339D01*
X0212800Y0088740D02*
X0001800Y0088740D01*
X0001800Y0087142D02*
X0212800Y0087142D01*
X0212800Y0085543D02*
X0001800Y0085543D01*
X0001800Y0083945D02*
X0212800Y0083945D01*
X0212800Y0082346D02*
X0001800Y0082346D01*
X0001800Y0080748D02*
X0212800Y0080748D01*
X0212800Y0079149D02*
X0001800Y0079149D01*
X0001800Y0077551D02*
X0212800Y0077551D01*
X0212800Y0075952D02*
X0001800Y0075952D01*
X0001800Y0074354D02*
X0212800Y0074354D01*
X0212800Y0072755D02*
X0001800Y0072755D01*
X0001800Y0071157D02*
X0212800Y0071157D01*
X0212800Y0069558D02*
X0001800Y0069558D01*
X0001800Y0067960D02*
X0212800Y0067960D01*
X0212800Y0066361D02*
X0001800Y0066361D01*
X0001800Y0064763D02*
X0212800Y0064763D01*
X0212800Y0063164D02*
X0001800Y0063164D01*
X0001800Y0061566D02*
X0212800Y0061566D01*
X0212800Y0059967D02*
X0001800Y0059967D01*
X0001800Y0058369D02*
X0212800Y0058369D01*
X0212800Y0056770D02*
X0001800Y0056770D01*
X0001800Y0055172D02*
X0212800Y0055172D01*
X0212800Y0053573D02*
X0001800Y0053573D01*
X0001800Y0051975D02*
X0212800Y0051975D01*
X0212800Y0050376D02*
X0001800Y0050376D01*
X0001800Y0048778D02*
X0212800Y0048778D01*
X0212800Y0047179D02*
X0001800Y0047179D01*
X0001800Y0045581D02*
X0212800Y0045581D01*
X0212800Y0043982D02*
X0001800Y0043982D01*
X0001800Y0042384D02*
X0212800Y0042384D01*
X0212800Y0040785D02*
X0001800Y0040785D01*
X0001800Y0039187D02*
X0212800Y0039187D01*
X0212800Y0037588D02*
X0001800Y0037588D01*
X0001800Y0035990D02*
X0212800Y0035990D01*
X0212800Y0034391D02*
X0001800Y0034391D01*
X0001800Y0032793D02*
X0212800Y0032793D01*
X0212800Y0031194D02*
X0001800Y0031194D01*
X0001800Y0029596D02*
X0212800Y0029596D01*
X0212800Y0027997D02*
X0001800Y0027997D01*
X0001800Y0026399D02*
X0212800Y0026399D01*
X0212800Y0024800D02*
X0001800Y0024800D01*
X0001800Y0023201D02*
X0212800Y0023201D01*
X0212800Y0021603D02*
X0001800Y0021603D01*
X0001800Y0020004D02*
X0212800Y0020004D01*
X0212800Y0018406D02*
X0001800Y0018406D01*
X0001800Y0016807D02*
X0212800Y0016807D01*
X0212800Y0015209D02*
X0001800Y0015209D01*
X0001800Y0013610D02*
X0212800Y0013610D01*
X0212800Y0012012D02*
X0001800Y0012012D01*
X0001800Y0010413D02*
X0212800Y0010413D01*
X0212800Y0008815D02*
X0001800Y0008815D01*
X0001800Y0007216D02*
X0212800Y0007216D01*
X0212800Y0005618D02*
X0001800Y0005618D01*
X0001800Y0004019D02*
X0212800Y0004019D01*
X0212800Y0002421D02*
X0001800Y0002421D01*
D12*
X0043674Y0038422D03*
X0054097Y0027985D03*
X0064540Y0038422D03*
X0054097Y0048851D03*
X0153910Y0038580D03*
X0164335Y0048997D03*
X0174776Y0038580D03*
X0164335Y0028131D03*
X0164335Y0199391D03*
X0153910Y0209839D03*
X0164335Y0220257D03*
X0174776Y0209839D03*
X0111784Y0209839D03*
X0101343Y0220257D03*
X0090918Y0209839D03*
X0101343Y0199391D03*
X0064540Y0209839D03*
X0054099Y0220249D03*
X0043674Y0209839D03*
X0054099Y0199383D03*
M02*
