G75*
%MOIN*%
%OFA0B0*%
%FSLAX25Y25*%
%IPPOS*%
%LPD*%
%AMOC8*
5,1,8,0,0,1.08239X$1,22.5*
%
%ADD10C,0.00000*%
D10*
X0022611Y0012989D02*
X0191902Y0012989D01*
X0189934Y0024800D02*
X0189936Y0024925D01*
X0189942Y0025050D01*
X0189952Y0025174D01*
X0189966Y0025298D01*
X0189983Y0025422D01*
X0190005Y0025545D01*
X0190031Y0025667D01*
X0190060Y0025789D01*
X0190093Y0025909D01*
X0190131Y0026028D01*
X0190171Y0026147D01*
X0190216Y0026263D01*
X0190264Y0026378D01*
X0190316Y0026492D01*
X0190372Y0026604D01*
X0190431Y0026714D01*
X0190493Y0026822D01*
X0190559Y0026929D01*
X0190628Y0027033D01*
X0190701Y0027134D01*
X0190776Y0027234D01*
X0190855Y0027331D01*
X0190937Y0027425D01*
X0191022Y0027517D01*
X0191109Y0027606D01*
X0191200Y0027692D01*
X0191293Y0027775D01*
X0191389Y0027856D01*
X0191487Y0027933D01*
X0191587Y0028007D01*
X0191690Y0028078D01*
X0191795Y0028145D01*
X0191903Y0028210D01*
X0192012Y0028270D01*
X0192123Y0028328D01*
X0192236Y0028381D01*
X0192350Y0028431D01*
X0192466Y0028478D01*
X0192583Y0028520D01*
X0192702Y0028559D01*
X0192822Y0028595D01*
X0192943Y0028626D01*
X0193065Y0028654D01*
X0193187Y0028677D01*
X0193311Y0028697D01*
X0193435Y0028713D01*
X0193559Y0028725D01*
X0193684Y0028733D01*
X0193809Y0028737D01*
X0193933Y0028737D01*
X0194058Y0028733D01*
X0194183Y0028725D01*
X0194307Y0028713D01*
X0194431Y0028697D01*
X0194555Y0028677D01*
X0194677Y0028654D01*
X0194799Y0028626D01*
X0194920Y0028595D01*
X0195040Y0028559D01*
X0195159Y0028520D01*
X0195276Y0028478D01*
X0195392Y0028431D01*
X0195506Y0028381D01*
X0195619Y0028328D01*
X0195730Y0028270D01*
X0195840Y0028210D01*
X0195947Y0028145D01*
X0196052Y0028078D01*
X0196155Y0028007D01*
X0196255Y0027933D01*
X0196353Y0027856D01*
X0196449Y0027775D01*
X0196542Y0027692D01*
X0196633Y0027606D01*
X0196720Y0027517D01*
X0196805Y0027425D01*
X0196887Y0027331D01*
X0196966Y0027234D01*
X0197041Y0027134D01*
X0197114Y0027033D01*
X0197183Y0026929D01*
X0197249Y0026822D01*
X0197311Y0026714D01*
X0197370Y0026604D01*
X0197426Y0026492D01*
X0197478Y0026378D01*
X0197526Y0026263D01*
X0197571Y0026147D01*
X0197611Y0026028D01*
X0197649Y0025909D01*
X0197682Y0025789D01*
X0197711Y0025667D01*
X0197737Y0025545D01*
X0197759Y0025422D01*
X0197776Y0025298D01*
X0197790Y0025174D01*
X0197800Y0025050D01*
X0197806Y0024925D01*
X0197808Y0024800D01*
X0197806Y0024675D01*
X0197800Y0024550D01*
X0197790Y0024426D01*
X0197776Y0024302D01*
X0197759Y0024178D01*
X0197737Y0024055D01*
X0197711Y0023933D01*
X0197682Y0023811D01*
X0197649Y0023691D01*
X0197611Y0023572D01*
X0197571Y0023453D01*
X0197526Y0023337D01*
X0197478Y0023222D01*
X0197426Y0023108D01*
X0197370Y0022996D01*
X0197311Y0022886D01*
X0197249Y0022778D01*
X0197183Y0022671D01*
X0197114Y0022567D01*
X0197041Y0022466D01*
X0196966Y0022366D01*
X0196887Y0022269D01*
X0196805Y0022175D01*
X0196720Y0022083D01*
X0196633Y0021994D01*
X0196542Y0021908D01*
X0196449Y0021825D01*
X0196353Y0021744D01*
X0196255Y0021667D01*
X0196155Y0021593D01*
X0196052Y0021522D01*
X0195947Y0021455D01*
X0195839Y0021390D01*
X0195730Y0021330D01*
X0195619Y0021272D01*
X0195506Y0021219D01*
X0195392Y0021169D01*
X0195276Y0021122D01*
X0195159Y0021080D01*
X0195040Y0021041D01*
X0194920Y0021005D01*
X0194799Y0020974D01*
X0194677Y0020946D01*
X0194555Y0020923D01*
X0194431Y0020903D01*
X0194307Y0020887D01*
X0194183Y0020875D01*
X0194058Y0020867D01*
X0193933Y0020863D01*
X0193809Y0020863D01*
X0193684Y0020867D01*
X0193559Y0020875D01*
X0193435Y0020887D01*
X0193311Y0020903D01*
X0193187Y0020923D01*
X0193065Y0020946D01*
X0192943Y0020974D01*
X0192822Y0021005D01*
X0192702Y0021041D01*
X0192583Y0021080D01*
X0192466Y0021122D01*
X0192350Y0021169D01*
X0192236Y0021219D01*
X0192123Y0021272D01*
X0192012Y0021330D01*
X0191902Y0021390D01*
X0191795Y0021455D01*
X0191690Y0021522D01*
X0191587Y0021593D01*
X0191487Y0021667D01*
X0191389Y0021744D01*
X0191293Y0021825D01*
X0191200Y0021908D01*
X0191109Y0021994D01*
X0191022Y0022083D01*
X0190937Y0022175D01*
X0190855Y0022269D01*
X0190776Y0022366D01*
X0190701Y0022466D01*
X0190628Y0022567D01*
X0190559Y0022671D01*
X0190493Y0022778D01*
X0190431Y0022886D01*
X0190372Y0022996D01*
X0190316Y0023108D01*
X0190264Y0023222D01*
X0190216Y0023337D01*
X0190171Y0023453D01*
X0190131Y0023572D01*
X0190093Y0023691D01*
X0190060Y0023811D01*
X0190031Y0023933D01*
X0190005Y0024055D01*
X0189983Y0024178D01*
X0189966Y0024302D01*
X0189952Y0024426D01*
X0189942Y0024550D01*
X0189936Y0024675D01*
X0189934Y0024800D01*
X0191902Y0012989D02*
X0192235Y0012993D01*
X0192568Y0013005D01*
X0192900Y0013025D01*
X0193232Y0013053D01*
X0193563Y0013089D01*
X0193893Y0013134D01*
X0194222Y0013186D01*
X0194550Y0013246D01*
X0194876Y0013314D01*
X0195200Y0013389D01*
X0195522Y0013473D01*
X0195842Y0013564D01*
X0196160Y0013663D01*
X0196476Y0013770D01*
X0196788Y0013884D01*
X0197098Y0014006D01*
X0197405Y0014136D01*
X0197709Y0014272D01*
X0198009Y0014416D01*
X0198306Y0014567D01*
X0198599Y0014726D01*
X0198888Y0014891D01*
X0199173Y0015063D01*
X0199454Y0015242D01*
X0199730Y0015428D01*
X0200002Y0015621D01*
X0200269Y0015820D01*
X0200531Y0016025D01*
X0200788Y0016237D01*
X0201040Y0016455D01*
X0201286Y0016678D01*
X0201527Y0016908D01*
X0201763Y0017144D01*
X0201993Y0017385D01*
X0202216Y0017631D01*
X0202434Y0017883D01*
X0202646Y0018140D01*
X0202851Y0018402D01*
X0203050Y0018669D01*
X0203243Y0018941D01*
X0203429Y0019217D01*
X0203608Y0019498D01*
X0203780Y0019783D01*
X0203945Y0020072D01*
X0204104Y0020365D01*
X0204255Y0020662D01*
X0204399Y0020962D01*
X0204535Y0021266D01*
X0204665Y0021573D01*
X0204787Y0021883D01*
X0204901Y0022195D01*
X0205008Y0022511D01*
X0205107Y0022829D01*
X0205198Y0023149D01*
X0205282Y0023471D01*
X0205357Y0023795D01*
X0205425Y0024121D01*
X0205485Y0024449D01*
X0205537Y0024778D01*
X0205582Y0025108D01*
X0205618Y0025439D01*
X0205646Y0025771D01*
X0205666Y0026103D01*
X0205678Y0026436D01*
X0205682Y0026769D01*
X0205682Y0220682D01*
X0189934Y0221650D02*
X0189936Y0221775D01*
X0189942Y0221900D01*
X0189952Y0222024D01*
X0189966Y0222148D01*
X0189983Y0222272D01*
X0190005Y0222395D01*
X0190031Y0222517D01*
X0190060Y0222639D01*
X0190093Y0222759D01*
X0190131Y0222878D01*
X0190171Y0222997D01*
X0190216Y0223113D01*
X0190264Y0223228D01*
X0190316Y0223342D01*
X0190372Y0223454D01*
X0190431Y0223564D01*
X0190493Y0223672D01*
X0190559Y0223779D01*
X0190628Y0223883D01*
X0190701Y0223984D01*
X0190776Y0224084D01*
X0190855Y0224181D01*
X0190937Y0224275D01*
X0191022Y0224367D01*
X0191109Y0224456D01*
X0191200Y0224542D01*
X0191293Y0224625D01*
X0191389Y0224706D01*
X0191487Y0224783D01*
X0191587Y0224857D01*
X0191690Y0224928D01*
X0191795Y0224995D01*
X0191903Y0225060D01*
X0192012Y0225120D01*
X0192123Y0225178D01*
X0192236Y0225231D01*
X0192350Y0225281D01*
X0192466Y0225328D01*
X0192583Y0225370D01*
X0192702Y0225409D01*
X0192822Y0225445D01*
X0192943Y0225476D01*
X0193065Y0225504D01*
X0193187Y0225527D01*
X0193311Y0225547D01*
X0193435Y0225563D01*
X0193559Y0225575D01*
X0193684Y0225583D01*
X0193809Y0225587D01*
X0193933Y0225587D01*
X0194058Y0225583D01*
X0194183Y0225575D01*
X0194307Y0225563D01*
X0194431Y0225547D01*
X0194555Y0225527D01*
X0194677Y0225504D01*
X0194799Y0225476D01*
X0194920Y0225445D01*
X0195040Y0225409D01*
X0195159Y0225370D01*
X0195276Y0225328D01*
X0195392Y0225281D01*
X0195506Y0225231D01*
X0195619Y0225178D01*
X0195730Y0225120D01*
X0195840Y0225060D01*
X0195947Y0224995D01*
X0196052Y0224928D01*
X0196155Y0224857D01*
X0196255Y0224783D01*
X0196353Y0224706D01*
X0196449Y0224625D01*
X0196542Y0224542D01*
X0196633Y0224456D01*
X0196720Y0224367D01*
X0196805Y0224275D01*
X0196887Y0224181D01*
X0196966Y0224084D01*
X0197041Y0223984D01*
X0197114Y0223883D01*
X0197183Y0223779D01*
X0197249Y0223672D01*
X0197311Y0223564D01*
X0197370Y0223454D01*
X0197426Y0223342D01*
X0197478Y0223228D01*
X0197526Y0223113D01*
X0197571Y0222997D01*
X0197611Y0222878D01*
X0197649Y0222759D01*
X0197682Y0222639D01*
X0197711Y0222517D01*
X0197737Y0222395D01*
X0197759Y0222272D01*
X0197776Y0222148D01*
X0197790Y0222024D01*
X0197800Y0221900D01*
X0197806Y0221775D01*
X0197808Y0221650D01*
X0197806Y0221525D01*
X0197800Y0221400D01*
X0197790Y0221276D01*
X0197776Y0221152D01*
X0197759Y0221028D01*
X0197737Y0220905D01*
X0197711Y0220783D01*
X0197682Y0220661D01*
X0197649Y0220541D01*
X0197611Y0220422D01*
X0197571Y0220303D01*
X0197526Y0220187D01*
X0197478Y0220072D01*
X0197426Y0219958D01*
X0197370Y0219846D01*
X0197311Y0219736D01*
X0197249Y0219628D01*
X0197183Y0219521D01*
X0197114Y0219417D01*
X0197041Y0219316D01*
X0196966Y0219216D01*
X0196887Y0219119D01*
X0196805Y0219025D01*
X0196720Y0218933D01*
X0196633Y0218844D01*
X0196542Y0218758D01*
X0196449Y0218675D01*
X0196353Y0218594D01*
X0196255Y0218517D01*
X0196155Y0218443D01*
X0196052Y0218372D01*
X0195947Y0218305D01*
X0195839Y0218240D01*
X0195730Y0218180D01*
X0195619Y0218122D01*
X0195506Y0218069D01*
X0195392Y0218019D01*
X0195276Y0217972D01*
X0195159Y0217930D01*
X0195040Y0217891D01*
X0194920Y0217855D01*
X0194799Y0217824D01*
X0194677Y0217796D01*
X0194555Y0217773D01*
X0194431Y0217753D01*
X0194307Y0217737D01*
X0194183Y0217725D01*
X0194058Y0217717D01*
X0193933Y0217713D01*
X0193809Y0217713D01*
X0193684Y0217717D01*
X0193559Y0217725D01*
X0193435Y0217737D01*
X0193311Y0217753D01*
X0193187Y0217773D01*
X0193065Y0217796D01*
X0192943Y0217824D01*
X0192822Y0217855D01*
X0192702Y0217891D01*
X0192583Y0217930D01*
X0192466Y0217972D01*
X0192350Y0218019D01*
X0192236Y0218069D01*
X0192123Y0218122D01*
X0192012Y0218180D01*
X0191902Y0218240D01*
X0191795Y0218305D01*
X0191690Y0218372D01*
X0191587Y0218443D01*
X0191487Y0218517D01*
X0191389Y0218594D01*
X0191293Y0218675D01*
X0191200Y0218758D01*
X0191109Y0218844D01*
X0191022Y0218933D01*
X0190937Y0219025D01*
X0190855Y0219119D01*
X0190776Y0219216D01*
X0190701Y0219316D01*
X0190628Y0219417D01*
X0190559Y0219521D01*
X0190493Y0219628D01*
X0190431Y0219736D01*
X0190372Y0219846D01*
X0190316Y0219958D01*
X0190264Y0220072D01*
X0190216Y0220187D01*
X0190171Y0220303D01*
X0190131Y0220422D01*
X0190093Y0220541D01*
X0190060Y0220661D01*
X0190031Y0220783D01*
X0190005Y0220905D01*
X0189983Y0221028D01*
X0189966Y0221152D01*
X0189952Y0221276D01*
X0189942Y0221400D01*
X0189936Y0221525D01*
X0189934Y0221650D01*
X0193902Y0233462D02*
X0194199Y0233446D01*
X0194495Y0233423D01*
X0194790Y0233393D01*
X0195085Y0233356D01*
X0195379Y0233312D01*
X0195671Y0233261D01*
X0195962Y0233202D01*
X0196252Y0233137D01*
X0196540Y0233065D01*
X0196826Y0232985D01*
X0197110Y0232899D01*
X0197392Y0232806D01*
X0197672Y0232706D01*
X0197949Y0232600D01*
X0198224Y0232487D01*
X0198496Y0232367D01*
X0198765Y0232240D01*
X0199030Y0232108D01*
X0199293Y0231968D01*
X0199551Y0231823D01*
X0199807Y0231671D01*
X0200058Y0231513D01*
X0200306Y0231349D01*
X0200550Y0231180D01*
X0200789Y0231004D01*
X0201024Y0230823D01*
X0201255Y0230636D01*
X0201481Y0230443D01*
X0201703Y0230245D01*
X0201919Y0230042D01*
X0202131Y0229834D01*
X0202337Y0229620D01*
X0202539Y0229402D01*
X0202735Y0229179D01*
X0202925Y0228951D01*
X0203110Y0228718D01*
X0203289Y0228482D01*
X0203463Y0228241D01*
X0203630Y0227995D01*
X0203792Y0227746D01*
X0203948Y0227493D01*
X0204097Y0227237D01*
X0204240Y0226976D01*
X0204377Y0226713D01*
X0204508Y0226446D01*
X0204632Y0226176D01*
X0204749Y0225903D01*
X0204860Y0225628D01*
X0204964Y0225350D01*
X0205061Y0225069D01*
X0205152Y0224786D01*
X0205235Y0224501D01*
X0205312Y0224214D01*
X0205382Y0223926D01*
X0205445Y0223635D01*
X0205500Y0223344D01*
X0205549Y0223051D01*
X0205591Y0222757D01*
X0205625Y0222462D01*
X0205653Y0222166D01*
X0205673Y0221869D01*
X0205686Y0221573D01*
X0205692Y0221276D01*
X0205690Y0220979D01*
X0205682Y0220682D01*
X0193902Y0233461D02*
X0022611Y0233461D01*
X0016706Y0221650D02*
X0016708Y0221775D01*
X0016714Y0221900D01*
X0016724Y0222024D01*
X0016738Y0222148D01*
X0016755Y0222272D01*
X0016777Y0222395D01*
X0016803Y0222517D01*
X0016832Y0222639D01*
X0016865Y0222759D01*
X0016903Y0222878D01*
X0016943Y0222997D01*
X0016988Y0223113D01*
X0017036Y0223228D01*
X0017088Y0223342D01*
X0017144Y0223454D01*
X0017203Y0223564D01*
X0017265Y0223672D01*
X0017331Y0223779D01*
X0017400Y0223883D01*
X0017473Y0223984D01*
X0017548Y0224084D01*
X0017627Y0224181D01*
X0017709Y0224275D01*
X0017794Y0224367D01*
X0017881Y0224456D01*
X0017972Y0224542D01*
X0018065Y0224625D01*
X0018161Y0224706D01*
X0018259Y0224783D01*
X0018359Y0224857D01*
X0018462Y0224928D01*
X0018567Y0224995D01*
X0018675Y0225060D01*
X0018784Y0225120D01*
X0018895Y0225178D01*
X0019008Y0225231D01*
X0019122Y0225281D01*
X0019238Y0225328D01*
X0019355Y0225370D01*
X0019474Y0225409D01*
X0019594Y0225445D01*
X0019715Y0225476D01*
X0019837Y0225504D01*
X0019959Y0225527D01*
X0020083Y0225547D01*
X0020207Y0225563D01*
X0020331Y0225575D01*
X0020456Y0225583D01*
X0020581Y0225587D01*
X0020705Y0225587D01*
X0020830Y0225583D01*
X0020955Y0225575D01*
X0021079Y0225563D01*
X0021203Y0225547D01*
X0021327Y0225527D01*
X0021449Y0225504D01*
X0021571Y0225476D01*
X0021692Y0225445D01*
X0021812Y0225409D01*
X0021931Y0225370D01*
X0022048Y0225328D01*
X0022164Y0225281D01*
X0022278Y0225231D01*
X0022391Y0225178D01*
X0022502Y0225120D01*
X0022612Y0225060D01*
X0022719Y0224995D01*
X0022824Y0224928D01*
X0022927Y0224857D01*
X0023027Y0224783D01*
X0023125Y0224706D01*
X0023221Y0224625D01*
X0023314Y0224542D01*
X0023405Y0224456D01*
X0023492Y0224367D01*
X0023577Y0224275D01*
X0023659Y0224181D01*
X0023738Y0224084D01*
X0023813Y0223984D01*
X0023886Y0223883D01*
X0023955Y0223779D01*
X0024021Y0223672D01*
X0024083Y0223564D01*
X0024142Y0223454D01*
X0024198Y0223342D01*
X0024250Y0223228D01*
X0024298Y0223113D01*
X0024343Y0222997D01*
X0024383Y0222878D01*
X0024421Y0222759D01*
X0024454Y0222639D01*
X0024483Y0222517D01*
X0024509Y0222395D01*
X0024531Y0222272D01*
X0024548Y0222148D01*
X0024562Y0222024D01*
X0024572Y0221900D01*
X0024578Y0221775D01*
X0024580Y0221650D01*
X0024578Y0221525D01*
X0024572Y0221400D01*
X0024562Y0221276D01*
X0024548Y0221152D01*
X0024531Y0221028D01*
X0024509Y0220905D01*
X0024483Y0220783D01*
X0024454Y0220661D01*
X0024421Y0220541D01*
X0024383Y0220422D01*
X0024343Y0220303D01*
X0024298Y0220187D01*
X0024250Y0220072D01*
X0024198Y0219958D01*
X0024142Y0219846D01*
X0024083Y0219736D01*
X0024021Y0219628D01*
X0023955Y0219521D01*
X0023886Y0219417D01*
X0023813Y0219316D01*
X0023738Y0219216D01*
X0023659Y0219119D01*
X0023577Y0219025D01*
X0023492Y0218933D01*
X0023405Y0218844D01*
X0023314Y0218758D01*
X0023221Y0218675D01*
X0023125Y0218594D01*
X0023027Y0218517D01*
X0022927Y0218443D01*
X0022824Y0218372D01*
X0022719Y0218305D01*
X0022611Y0218240D01*
X0022502Y0218180D01*
X0022391Y0218122D01*
X0022278Y0218069D01*
X0022164Y0218019D01*
X0022048Y0217972D01*
X0021931Y0217930D01*
X0021812Y0217891D01*
X0021692Y0217855D01*
X0021571Y0217824D01*
X0021449Y0217796D01*
X0021327Y0217773D01*
X0021203Y0217753D01*
X0021079Y0217737D01*
X0020955Y0217725D01*
X0020830Y0217717D01*
X0020705Y0217713D01*
X0020581Y0217713D01*
X0020456Y0217717D01*
X0020331Y0217725D01*
X0020207Y0217737D01*
X0020083Y0217753D01*
X0019959Y0217773D01*
X0019837Y0217796D01*
X0019715Y0217824D01*
X0019594Y0217855D01*
X0019474Y0217891D01*
X0019355Y0217930D01*
X0019238Y0217972D01*
X0019122Y0218019D01*
X0019008Y0218069D01*
X0018895Y0218122D01*
X0018784Y0218180D01*
X0018674Y0218240D01*
X0018567Y0218305D01*
X0018462Y0218372D01*
X0018359Y0218443D01*
X0018259Y0218517D01*
X0018161Y0218594D01*
X0018065Y0218675D01*
X0017972Y0218758D01*
X0017881Y0218844D01*
X0017794Y0218933D01*
X0017709Y0219025D01*
X0017627Y0219119D01*
X0017548Y0219216D01*
X0017473Y0219316D01*
X0017400Y0219417D01*
X0017331Y0219521D01*
X0017265Y0219628D01*
X0017203Y0219736D01*
X0017144Y0219846D01*
X0017088Y0219958D01*
X0017036Y0220072D01*
X0016988Y0220187D01*
X0016943Y0220303D01*
X0016903Y0220422D01*
X0016865Y0220541D01*
X0016832Y0220661D01*
X0016803Y0220783D01*
X0016777Y0220905D01*
X0016755Y0221028D01*
X0016738Y0221152D01*
X0016724Y0221276D01*
X0016714Y0221400D01*
X0016708Y0221525D01*
X0016706Y0221650D01*
X0008831Y0219682D02*
X0008835Y0220015D01*
X0008847Y0220348D01*
X0008867Y0220680D01*
X0008895Y0221012D01*
X0008931Y0221343D01*
X0008976Y0221673D01*
X0009028Y0222002D01*
X0009088Y0222330D01*
X0009156Y0222656D01*
X0009231Y0222980D01*
X0009315Y0223302D01*
X0009406Y0223622D01*
X0009505Y0223940D01*
X0009612Y0224256D01*
X0009726Y0224568D01*
X0009848Y0224878D01*
X0009978Y0225185D01*
X0010114Y0225489D01*
X0010258Y0225789D01*
X0010409Y0226086D01*
X0010568Y0226379D01*
X0010733Y0226668D01*
X0010905Y0226953D01*
X0011084Y0227234D01*
X0011270Y0227510D01*
X0011463Y0227782D01*
X0011662Y0228049D01*
X0011867Y0228311D01*
X0012079Y0228568D01*
X0012297Y0228820D01*
X0012520Y0229066D01*
X0012750Y0229307D01*
X0012986Y0229543D01*
X0013227Y0229773D01*
X0013473Y0229996D01*
X0013725Y0230214D01*
X0013982Y0230426D01*
X0014244Y0230631D01*
X0014511Y0230830D01*
X0014783Y0231023D01*
X0015059Y0231209D01*
X0015340Y0231388D01*
X0015625Y0231560D01*
X0015914Y0231725D01*
X0016207Y0231884D01*
X0016504Y0232035D01*
X0016804Y0232179D01*
X0017108Y0232315D01*
X0017415Y0232445D01*
X0017725Y0232567D01*
X0018037Y0232681D01*
X0018353Y0232788D01*
X0018671Y0232887D01*
X0018991Y0232978D01*
X0019313Y0233062D01*
X0019637Y0233137D01*
X0019963Y0233205D01*
X0020291Y0233265D01*
X0020620Y0233317D01*
X0020950Y0233362D01*
X0021281Y0233398D01*
X0021613Y0233426D01*
X0021945Y0233446D01*
X0022278Y0233458D01*
X0022611Y0233462D01*
X0008831Y0219682D02*
X0008831Y0026769D01*
X0016706Y0024800D02*
X0016708Y0024925D01*
X0016714Y0025050D01*
X0016724Y0025174D01*
X0016738Y0025298D01*
X0016755Y0025422D01*
X0016777Y0025545D01*
X0016803Y0025667D01*
X0016832Y0025789D01*
X0016865Y0025909D01*
X0016903Y0026028D01*
X0016943Y0026147D01*
X0016988Y0026263D01*
X0017036Y0026378D01*
X0017088Y0026492D01*
X0017144Y0026604D01*
X0017203Y0026714D01*
X0017265Y0026822D01*
X0017331Y0026929D01*
X0017400Y0027033D01*
X0017473Y0027134D01*
X0017548Y0027234D01*
X0017627Y0027331D01*
X0017709Y0027425D01*
X0017794Y0027517D01*
X0017881Y0027606D01*
X0017972Y0027692D01*
X0018065Y0027775D01*
X0018161Y0027856D01*
X0018259Y0027933D01*
X0018359Y0028007D01*
X0018462Y0028078D01*
X0018567Y0028145D01*
X0018675Y0028210D01*
X0018784Y0028270D01*
X0018895Y0028328D01*
X0019008Y0028381D01*
X0019122Y0028431D01*
X0019238Y0028478D01*
X0019355Y0028520D01*
X0019474Y0028559D01*
X0019594Y0028595D01*
X0019715Y0028626D01*
X0019837Y0028654D01*
X0019959Y0028677D01*
X0020083Y0028697D01*
X0020207Y0028713D01*
X0020331Y0028725D01*
X0020456Y0028733D01*
X0020581Y0028737D01*
X0020705Y0028737D01*
X0020830Y0028733D01*
X0020955Y0028725D01*
X0021079Y0028713D01*
X0021203Y0028697D01*
X0021327Y0028677D01*
X0021449Y0028654D01*
X0021571Y0028626D01*
X0021692Y0028595D01*
X0021812Y0028559D01*
X0021931Y0028520D01*
X0022048Y0028478D01*
X0022164Y0028431D01*
X0022278Y0028381D01*
X0022391Y0028328D01*
X0022502Y0028270D01*
X0022612Y0028210D01*
X0022719Y0028145D01*
X0022824Y0028078D01*
X0022927Y0028007D01*
X0023027Y0027933D01*
X0023125Y0027856D01*
X0023221Y0027775D01*
X0023314Y0027692D01*
X0023405Y0027606D01*
X0023492Y0027517D01*
X0023577Y0027425D01*
X0023659Y0027331D01*
X0023738Y0027234D01*
X0023813Y0027134D01*
X0023886Y0027033D01*
X0023955Y0026929D01*
X0024021Y0026822D01*
X0024083Y0026714D01*
X0024142Y0026604D01*
X0024198Y0026492D01*
X0024250Y0026378D01*
X0024298Y0026263D01*
X0024343Y0026147D01*
X0024383Y0026028D01*
X0024421Y0025909D01*
X0024454Y0025789D01*
X0024483Y0025667D01*
X0024509Y0025545D01*
X0024531Y0025422D01*
X0024548Y0025298D01*
X0024562Y0025174D01*
X0024572Y0025050D01*
X0024578Y0024925D01*
X0024580Y0024800D01*
X0024578Y0024675D01*
X0024572Y0024550D01*
X0024562Y0024426D01*
X0024548Y0024302D01*
X0024531Y0024178D01*
X0024509Y0024055D01*
X0024483Y0023933D01*
X0024454Y0023811D01*
X0024421Y0023691D01*
X0024383Y0023572D01*
X0024343Y0023453D01*
X0024298Y0023337D01*
X0024250Y0023222D01*
X0024198Y0023108D01*
X0024142Y0022996D01*
X0024083Y0022886D01*
X0024021Y0022778D01*
X0023955Y0022671D01*
X0023886Y0022567D01*
X0023813Y0022466D01*
X0023738Y0022366D01*
X0023659Y0022269D01*
X0023577Y0022175D01*
X0023492Y0022083D01*
X0023405Y0021994D01*
X0023314Y0021908D01*
X0023221Y0021825D01*
X0023125Y0021744D01*
X0023027Y0021667D01*
X0022927Y0021593D01*
X0022824Y0021522D01*
X0022719Y0021455D01*
X0022611Y0021390D01*
X0022502Y0021330D01*
X0022391Y0021272D01*
X0022278Y0021219D01*
X0022164Y0021169D01*
X0022048Y0021122D01*
X0021931Y0021080D01*
X0021812Y0021041D01*
X0021692Y0021005D01*
X0021571Y0020974D01*
X0021449Y0020946D01*
X0021327Y0020923D01*
X0021203Y0020903D01*
X0021079Y0020887D01*
X0020955Y0020875D01*
X0020830Y0020867D01*
X0020705Y0020863D01*
X0020581Y0020863D01*
X0020456Y0020867D01*
X0020331Y0020875D01*
X0020207Y0020887D01*
X0020083Y0020903D01*
X0019959Y0020923D01*
X0019837Y0020946D01*
X0019715Y0020974D01*
X0019594Y0021005D01*
X0019474Y0021041D01*
X0019355Y0021080D01*
X0019238Y0021122D01*
X0019122Y0021169D01*
X0019008Y0021219D01*
X0018895Y0021272D01*
X0018784Y0021330D01*
X0018674Y0021390D01*
X0018567Y0021455D01*
X0018462Y0021522D01*
X0018359Y0021593D01*
X0018259Y0021667D01*
X0018161Y0021744D01*
X0018065Y0021825D01*
X0017972Y0021908D01*
X0017881Y0021994D01*
X0017794Y0022083D01*
X0017709Y0022175D01*
X0017627Y0022269D01*
X0017548Y0022366D01*
X0017473Y0022466D01*
X0017400Y0022567D01*
X0017331Y0022671D01*
X0017265Y0022778D01*
X0017203Y0022886D01*
X0017144Y0022996D01*
X0017088Y0023108D01*
X0017036Y0023222D01*
X0016988Y0023337D01*
X0016943Y0023453D01*
X0016903Y0023572D01*
X0016865Y0023691D01*
X0016832Y0023811D01*
X0016803Y0023933D01*
X0016777Y0024055D01*
X0016755Y0024178D01*
X0016738Y0024302D01*
X0016724Y0024426D01*
X0016714Y0024550D01*
X0016708Y0024675D01*
X0016706Y0024800D01*
X0008831Y0026769D02*
X0008835Y0026436D01*
X0008847Y0026103D01*
X0008867Y0025771D01*
X0008895Y0025439D01*
X0008931Y0025108D01*
X0008976Y0024778D01*
X0009028Y0024449D01*
X0009088Y0024121D01*
X0009156Y0023795D01*
X0009231Y0023471D01*
X0009315Y0023149D01*
X0009406Y0022829D01*
X0009505Y0022511D01*
X0009612Y0022195D01*
X0009726Y0021883D01*
X0009848Y0021573D01*
X0009978Y0021266D01*
X0010114Y0020962D01*
X0010258Y0020662D01*
X0010409Y0020365D01*
X0010568Y0020072D01*
X0010733Y0019783D01*
X0010905Y0019498D01*
X0011084Y0019217D01*
X0011270Y0018941D01*
X0011463Y0018669D01*
X0011662Y0018402D01*
X0011867Y0018140D01*
X0012079Y0017883D01*
X0012297Y0017631D01*
X0012520Y0017385D01*
X0012750Y0017144D01*
X0012986Y0016908D01*
X0013227Y0016678D01*
X0013473Y0016455D01*
X0013725Y0016237D01*
X0013982Y0016025D01*
X0014244Y0015820D01*
X0014511Y0015621D01*
X0014783Y0015428D01*
X0015059Y0015242D01*
X0015340Y0015063D01*
X0015625Y0014891D01*
X0015914Y0014726D01*
X0016207Y0014567D01*
X0016504Y0014416D01*
X0016804Y0014272D01*
X0017108Y0014136D01*
X0017415Y0014006D01*
X0017725Y0013884D01*
X0018037Y0013770D01*
X0018353Y0013663D01*
X0018671Y0013564D01*
X0018991Y0013473D01*
X0019313Y0013389D01*
X0019637Y0013314D01*
X0019963Y0013246D01*
X0020291Y0013186D01*
X0020620Y0013134D01*
X0020950Y0013089D01*
X0021281Y0013053D01*
X0021613Y0013025D01*
X0021945Y0013005D01*
X0022278Y0012993D01*
X0022611Y0012989D01*
M02*
