G75*
%MOIN*%
%OFA0B0*%
%FSLAX25Y25*%
%IPPOS*%
%LPD*%
%AMOC8*
5,1,8,0,0,1.08239X$1,22.5*
%
%ADD10C,0.07874*%
%ADD11C,0.01600*%
%ADD12C,0.10000*%
%ADD13C,0.01772*%
%ADD14C,0.10236*%
%ADD15R,0.01969X0.05906*%
%ADD16R,0.02559X0.05906*%
%ADD17R,0.07087X0.12992*%
%ADD18R,0.06299X0.07087*%
%ADD19R,0.05787X0.06969*%
%ADD20R,0.14961X0.05512*%
%ADD21R,0.21654X0.15748*%
%ADD22R,0.06969X0.05787*%
D10*
X0020643Y0024800D03*
X0193871Y0024800D03*
X0193871Y0221650D03*
X0020643Y0221650D03*
D11*
X0133800Y0102800D02*
X0133800Y0090800D01*
X0155800Y0090800D01*
X0155800Y0102800D01*
X0133800Y0102800D01*
X0133800Y0101529D02*
X0155800Y0101529D01*
X0155800Y0099930D02*
X0133800Y0099930D01*
X0133800Y0098332D02*
X0155800Y0098332D01*
X0155800Y0096733D02*
X0133800Y0096733D01*
X0133800Y0095134D02*
X0155800Y0095134D01*
X0155800Y0093536D02*
X0133800Y0093536D01*
X0133800Y0091937D02*
X0155800Y0091937D01*
D12*
X0164335Y0048997D03*
X0153910Y0038580D03*
X0164335Y0028131D03*
X0174776Y0038580D03*
X0064540Y0038422D03*
X0054097Y0048851D03*
X0043674Y0038422D03*
X0054097Y0027985D03*
X0054099Y0199383D03*
X0043674Y0209839D03*
X0054099Y0220249D03*
X0064540Y0209839D03*
X0090918Y0209839D03*
X0101343Y0220257D03*
X0111784Y0209839D03*
X0101343Y0199391D03*
X0153910Y0209839D03*
X0164335Y0220257D03*
X0174776Y0209839D03*
X0164335Y0199391D03*
D13*
X0173104Y0187398D02*
X0173104Y0177950D01*
X0173104Y0187398D02*
X0178418Y0187398D01*
X0178418Y0177950D01*
X0173104Y0177950D01*
X0173104Y0179721D02*
X0178418Y0179721D01*
X0178418Y0181492D02*
X0173104Y0181492D01*
X0173104Y0183263D02*
X0178418Y0183263D01*
X0178418Y0185034D02*
X0173104Y0185034D01*
X0173104Y0186805D02*
X0178418Y0186805D01*
X0181765Y0139367D02*
X0181765Y0129919D01*
X0181765Y0139367D02*
X0187079Y0139367D01*
X0187079Y0129919D01*
X0181765Y0129919D01*
X0181765Y0131690D02*
X0187079Y0131690D01*
X0187079Y0133461D02*
X0181765Y0133461D01*
X0181765Y0135232D02*
X0187079Y0135232D01*
X0187079Y0137003D02*
X0181765Y0137003D01*
X0181765Y0138774D02*
X0187079Y0138774D01*
X0173104Y0116532D02*
X0173104Y0107084D01*
X0173104Y0116532D02*
X0178418Y0116532D01*
X0178418Y0107084D01*
X0173104Y0107084D01*
X0173104Y0108855D02*
X0178418Y0108855D01*
X0178418Y0110626D02*
X0173104Y0110626D01*
X0173104Y0112397D02*
X0178418Y0112397D01*
X0178418Y0114168D02*
X0173104Y0114168D01*
X0173104Y0115939D02*
X0178418Y0115939D01*
X0181765Y0068500D02*
X0181765Y0059052D01*
X0181765Y0068500D02*
X0187079Y0068500D01*
X0187079Y0059052D01*
X0181765Y0059052D01*
X0181765Y0060823D02*
X0187079Y0060823D01*
X0187079Y0062594D02*
X0181765Y0062594D01*
X0181765Y0064365D02*
X0187079Y0064365D01*
X0187079Y0066136D02*
X0181765Y0066136D01*
X0181765Y0067907D02*
X0187079Y0067907D01*
X0047315Y0068500D02*
X0047315Y0059052D01*
X0042001Y0059052D01*
X0042001Y0068500D01*
X0047315Y0068500D01*
X0047315Y0060823D02*
X0042001Y0060823D01*
X0042001Y0062594D02*
X0047315Y0062594D01*
X0047315Y0064365D02*
X0042001Y0064365D01*
X0042001Y0066136D02*
X0047315Y0066136D01*
X0047315Y0067907D02*
X0042001Y0067907D01*
X0038654Y0107084D02*
X0038654Y0116532D01*
X0038654Y0107084D02*
X0033340Y0107084D01*
X0033340Y0116532D01*
X0038654Y0116532D01*
X0038654Y0108855D02*
X0033340Y0108855D01*
X0033340Y0110626D02*
X0038654Y0110626D01*
X0038654Y0112397D02*
X0033340Y0112397D01*
X0033340Y0114168D02*
X0038654Y0114168D01*
X0038654Y0115939D02*
X0033340Y0115939D01*
X0047315Y0129919D02*
X0047315Y0139367D01*
X0047315Y0129919D02*
X0042001Y0129919D01*
X0042001Y0139367D01*
X0047315Y0139367D01*
X0047315Y0131690D02*
X0042001Y0131690D01*
X0042001Y0133461D02*
X0047315Y0133461D01*
X0047315Y0135232D02*
X0042001Y0135232D01*
X0042001Y0137003D02*
X0047315Y0137003D01*
X0047315Y0138774D02*
X0042001Y0138774D01*
X0038654Y0177950D02*
X0038654Y0187398D01*
X0038654Y0177950D02*
X0033340Y0177950D01*
X0033340Y0187398D01*
X0038654Y0187398D01*
X0038654Y0179721D02*
X0033340Y0179721D01*
X0033340Y0181492D02*
X0038654Y0181492D01*
X0038654Y0183263D02*
X0033340Y0183263D01*
X0033340Y0185034D02*
X0038654Y0185034D01*
X0038654Y0186805D02*
X0033340Y0186805D01*
D14*
X0047021Y0163776D02*
X0047021Y0153540D01*
X0033635Y0153540D01*
X0033635Y0163776D01*
X0047021Y0163776D01*
X0047021Y0163775D02*
X0033635Y0163775D01*
X0047021Y0092910D02*
X0047021Y0082674D01*
X0033635Y0082674D01*
X0033635Y0092910D01*
X0047021Y0092910D01*
X0047021Y0092909D02*
X0033635Y0092909D01*
X0173398Y0092910D02*
X0173398Y0082674D01*
X0173398Y0092910D02*
X0186784Y0092910D01*
X0186784Y0082674D01*
X0173398Y0082674D01*
X0173398Y0092909D02*
X0186784Y0092909D01*
X0173398Y0153540D02*
X0173398Y0163776D01*
X0186784Y0163776D01*
X0186784Y0153540D01*
X0173398Y0153540D01*
X0173398Y0163775D02*
X0186784Y0163775D01*
D15*
X0150624Y0122719D03*
X0138813Y0122719D03*
X0138813Y0109924D03*
X0150624Y0109924D03*
D16*
X0144718Y0109924D03*
D17*
X0144718Y0119274D03*
D18*
X0139425Y0133907D03*
X0150449Y0133907D03*
D19*
X0121681Y0128484D03*
X0121681Y0109587D03*
D20*
X0108412Y0136656D03*
X0084790Y0136656D03*
D21*
X0107260Y0093436D03*
X0107260Y0059972D03*
D22*
X0102926Y0174406D03*
X0084028Y0174406D03*
M02*
