%
M48
M72
T01C0.0197
T02C0.0500
T03C0.0787
%
T01
X3280Y7280
X3280Y7780
X3280Y8380
X3880Y8380
X3880Y7780
X3880Y7280
X4480Y7280
X4480Y7780
X4480Y8380
X4480Y8980
X4480Y9580
X4480Y10080
X3880Y10080
X3880Y9580
X3880Y8980
X3280Y8980
X3280Y9580
X3280Y10080
X2680Y9580
X2680Y8980
X2680Y8380
X2680Y7780
X5080Y7780
X5080Y8380
X5580Y8380
X5580Y8980
X5080Y8980
X5080Y9580
X5080Y10080
X5580Y9580
X4880Y14480
X4880Y14980
X4880Y15480
X4880Y15980
X4880Y16480
X4880Y16980
X4380Y16980
X4380Y16480
X4380Y15980
X4380Y15480
X4380Y14980
X4380Y14480
X3880Y14480
X3880Y14980
X3880Y15480
X3880Y15980
X3880Y16480
X3880Y16980
X3380Y16980
X3380Y16480
X3380Y15980
X3380Y15480
X3380Y14980
X3380Y14480
X2880Y14480
X2880Y14980
X2880Y15480
X2880Y15980
X2880Y16480
X2880Y16980
X5380Y16980
X5380Y16480
X5380Y15980
X5380Y15480
X5380Y14980
X16280Y9480
X16780Y9480
X16780Y10080
X17380Y10080
X17380Y9480
X17380Y8880
X17380Y8280
X16780Y8280
X16780Y8880
X16280Y8880
X16280Y8280
X16780Y7680
X17380Y7680
X17980Y7680
X17980Y8280
X17980Y8880
X17980Y9480
X17980Y10080
X18580Y10080
X18580Y9480
X18580Y8880
X18580Y8280
X18580Y7680
X19180Y7680
X19180Y8280
X19680Y8280
X19680Y8880
X19180Y8880
X19180Y9480
X19680Y9480
X19180Y10080
X18880Y14880
X18880Y15380
X18380Y15380
X18380Y14880
X17880Y14880
X17880Y15380
X17880Y15880
X17880Y16380
X17880Y16880
X17880Y17380
X18380Y17380
X18380Y16880
X18380Y16380
X18380Y15880
X18880Y15880
X18880Y16380
X18880Y16880
X18880Y17380
X19380Y16880
X19380Y16380
X19380Y15880
X19380Y15380
X17380Y15380
X17380Y14880
X16880Y14880
X16880Y15380
X16380Y15380
X16380Y15880
X16380Y16380
X16880Y16380
X16880Y15880
X17380Y15880
X17380Y16380
X17380Y16880
X17380Y17380
X16880Y16880
T02
X16434Y19939
X15391Y20984
X16434Y22026
X17478Y20984
X11178Y20984
X10134Y22026
X9092Y20984
X10134Y19939
X6454Y20984
X5410Y22025
X4367Y20984
X5410Y19938
X5410Y4885
X4367Y3842
X5410Y2799
X6454Y3842
X15391Y3858
X16434Y4900
X17478Y3858
X16434Y2813
T03
X2064Y2480
X19387Y2480
X19387Y22165
X2064Y22165
M30
