G75*
%MOIN*%
%OFA0B0*%
%FSLAX25Y25*%
%IPPOS*%
%LPD*%
%AMOC8*
5,1,8,0,0,1.08239X$1,22.5*
%
%ADD10C,0.10000*%
%ADD11C,0.01600*%
%ADD12R,0.03169X0.03169*%
D10*
X0043674Y0038422D03*
X0054097Y0027985D03*
X0064540Y0038422D03*
X0054097Y0048851D03*
X0153910Y0038580D03*
X0164335Y0048997D03*
X0174776Y0038580D03*
X0164335Y0028131D03*
X0164335Y0199391D03*
X0153910Y0209839D03*
X0164335Y0220257D03*
X0174776Y0209839D03*
X0111784Y0209839D03*
X0101343Y0220257D03*
X0090918Y0209839D03*
X0101343Y0199391D03*
X0064540Y0209839D03*
X0054099Y0220249D03*
X0043674Y0209839D03*
X0054099Y0199383D03*
D11*
X0013900Y0020085D02*
X0015927Y0018058D01*
X0018409Y0016625D01*
X0021178Y0015883D01*
X0022611Y0015789D01*
X0191902Y0015789D01*
X0193335Y0015883D01*
X0196104Y0016625D01*
X0198586Y0018058D01*
X0200613Y0020085D01*
X0202046Y0022567D01*
X0202788Y0025335D01*
X0202882Y0026768D01*
X0202882Y0220184D01*
X0202862Y0220239D01*
X0202882Y0220739D01*
X0202882Y0220889D01*
X0202853Y0222037D01*
X0202310Y0224454D01*
X0201160Y0226648D01*
X0199481Y0228469D01*
X0197388Y0229794D01*
X0195023Y0230532D01*
X0193810Y0230661D01*
X0022611Y0230661D01*
X0021178Y0230567D01*
X0018409Y0229826D01*
X0015927Y0228393D01*
X0013900Y0226366D01*
X0012467Y0223884D01*
X0011725Y0221115D01*
X0011631Y0219682D01*
X0011631Y0026768D01*
X0011725Y0025335D01*
X0012467Y0022567D01*
X0013900Y0020085D01*
X0013900Y0020085D01*
X0013980Y0020004D02*
X0015910Y0020004D01*
X0016826Y0019089D02*
X0019302Y0018063D01*
X0021983Y0018063D01*
X0024459Y0019089D01*
X0026354Y0020984D01*
X0027380Y0023460D01*
X0027380Y0026140D01*
X0026354Y0028616D01*
X0024459Y0030511D01*
X0021983Y0031537D01*
X0019302Y0031537D01*
X0016826Y0030511D01*
X0014931Y0028616D01*
X0013906Y0026140D01*
X0013906Y0023460D01*
X0014931Y0020984D01*
X0016826Y0019089D01*
X0015579Y0018406D02*
X0018474Y0018406D01*
X0018093Y0016807D02*
X0196421Y0016807D01*
X0196039Y0018406D02*
X0198934Y0018406D01*
X0197687Y0019089D02*
X0199582Y0020984D01*
X0200608Y0023460D01*
X0200608Y0026140D01*
X0199582Y0028616D01*
X0197687Y0030511D01*
X0195211Y0031537D01*
X0192531Y0031537D01*
X0190055Y0030511D01*
X0188160Y0028616D01*
X0187134Y0026140D01*
X0187134Y0023460D01*
X0188160Y0020984D01*
X0190055Y0019089D01*
X0192531Y0018063D01*
X0195211Y0018063D01*
X0197687Y0019089D01*
X0198603Y0020004D02*
X0200533Y0020004D01*
X0199839Y0021603D02*
X0201490Y0021603D01*
X0202216Y0023201D02*
X0200501Y0023201D01*
X0200608Y0024800D02*
X0202645Y0024800D01*
X0202858Y0026399D02*
X0200501Y0026399D01*
X0199839Y0027997D02*
X0202882Y0027997D01*
X0202882Y0029596D02*
X0198603Y0029596D01*
X0196039Y0031194D02*
X0202882Y0031194D01*
X0202882Y0032793D02*
X0178353Y0032793D01*
X0178562Y0032913D02*
X0179270Y0033456D01*
X0179900Y0034086D01*
X0180442Y0034794D01*
X0180888Y0035566D01*
X0181229Y0036389D01*
X0181460Y0037250D01*
X0181576Y0038130D01*
X0175226Y0038130D01*
X0175226Y0039030D01*
X0174326Y0039030D01*
X0174326Y0045379D01*
X0173447Y0045263D01*
X0172586Y0045032D01*
X0171762Y0044691D01*
X0170990Y0044246D01*
X0170283Y0043703D01*
X0169653Y0043073D01*
X0169110Y0042366D01*
X0168665Y0041594D01*
X0168323Y0040770D01*
X0168093Y0039909D01*
X0167977Y0039030D01*
X0174326Y0039030D01*
X0174326Y0038130D01*
X0167977Y0038130D01*
X0168093Y0037250D01*
X0168323Y0036389D01*
X0168665Y0035566D01*
X0169110Y0034794D01*
X0169653Y0034086D01*
X0170283Y0033456D01*
X0170990Y0032913D01*
X0171762Y0032468D01*
X0172586Y0032127D01*
X0173447Y0031896D01*
X0174326Y0031780D01*
X0174326Y0038129D01*
X0175226Y0038129D01*
X0175226Y0031780D01*
X0176106Y0031896D01*
X0176967Y0032127D01*
X0177790Y0032468D01*
X0178562Y0032913D01*
X0180134Y0034391D02*
X0202882Y0034391D01*
X0202882Y0035990D02*
X0181064Y0035990D01*
X0181505Y0037588D02*
X0202882Y0037588D01*
X0202882Y0039187D02*
X0181555Y0039187D01*
X0181576Y0039030D02*
X0181460Y0039909D01*
X0181229Y0040770D01*
X0180888Y0041594D01*
X0180442Y0042366D01*
X0179900Y0043073D01*
X0179270Y0043703D01*
X0178562Y0044246D01*
X0177790Y0044691D01*
X0176967Y0045032D01*
X0176106Y0045263D01*
X0175226Y0045379D01*
X0175226Y0039030D01*
X0181576Y0039030D01*
X0181223Y0040785D02*
X0202882Y0040785D01*
X0202882Y0042384D02*
X0180429Y0042384D01*
X0178906Y0043982D02*
X0202882Y0043982D01*
X0202882Y0045581D02*
X0170215Y0045581D01*
X0170002Y0045211D02*
X0170447Y0045983D01*
X0170788Y0046806D01*
X0171019Y0047667D01*
X0171135Y0048547D01*
X0164786Y0048547D01*
X0164786Y0049447D01*
X0171135Y0049447D01*
X0171019Y0050326D01*
X0170788Y0051187D01*
X0170447Y0052011D01*
X0170002Y0052783D01*
X0169459Y0053490D01*
X0168829Y0054120D01*
X0168121Y0054663D01*
X0167349Y0055109D01*
X0166526Y0055450D01*
X0165665Y0055680D01*
X0164785Y0055796D01*
X0164785Y0049447D01*
X0163885Y0049447D01*
X0163885Y0048547D01*
X0157536Y0048547D01*
X0157652Y0047667D01*
X0157882Y0046806D01*
X0158224Y0045983D01*
X0158669Y0045211D01*
X0159212Y0044504D01*
X0159842Y0043873D01*
X0160549Y0043331D01*
X0161321Y0042885D01*
X0162145Y0042544D01*
X0163006Y0042313D01*
X0163885Y0042197D01*
X0163885Y0048547D01*
X0164785Y0048547D01*
X0164785Y0042197D01*
X0165665Y0042313D01*
X0166526Y0042544D01*
X0167349Y0042885D01*
X0168121Y0043331D01*
X0168829Y0043873D01*
X0169459Y0044504D01*
X0170002Y0045211D01*
X0170647Y0043982D02*
X0168937Y0043982D01*
X0169124Y0042384D02*
X0165928Y0042384D01*
X0164785Y0042384D02*
X0163885Y0042384D01*
X0162743Y0042384D02*
X0159562Y0042384D01*
X0159576Y0042366D02*
X0159034Y0043073D01*
X0158403Y0043703D01*
X0157696Y0044246D01*
X0156924Y0044691D01*
X0156101Y0045032D01*
X0155240Y0045263D01*
X0154360Y0045379D01*
X0154360Y0039030D01*
X0153460Y0039030D01*
X0153460Y0045379D01*
X0152581Y0045263D01*
X0151720Y0045032D01*
X0150896Y0044691D01*
X0150124Y0044246D01*
X0149417Y0043703D01*
X0148787Y0043073D01*
X0148244Y0042366D01*
X0147798Y0041594D01*
X0147457Y0040770D01*
X0147227Y0039909D01*
X0147111Y0039030D01*
X0153460Y0039030D01*
X0153460Y0038130D01*
X0147111Y0038130D01*
X0147227Y0037250D01*
X0147457Y0036389D01*
X0147798Y0035566D01*
X0148244Y0034794D01*
X0148787Y0034086D01*
X0149417Y0033456D01*
X0150124Y0032913D01*
X0150896Y0032468D01*
X0151720Y0032127D01*
X0152581Y0031896D01*
X0153460Y0031780D01*
X0153460Y0038129D01*
X0154360Y0038129D01*
X0154360Y0031780D01*
X0155240Y0031896D01*
X0156101Y0032127D01*
X0156924Y0032468D01*
X0157696Y0032913D01*
X0158403Y0033456D01*
X0159034Y0034086D01*
X0159576Y0034794D01*
X0160022Y0035566D01*
X0160363Y0036389D01*
X0160594Y0037250D01*
X0160710Y0038130D01*
X0154360Y0038130D01*
X0154360Y0039030D01*
X0160710Y0039030D01*
X0160594Y0039909D01*
X0160363Y0040770D01*
X0160022Y0041594D01*
X0159576Y0042366D01*
X0159733Y0043982D02*
X0158040Y0043982D01*
X0158456Y0045581D02*
X0069827Y0045581D01*
X0069525Y0045882D02*
X0066291Y0047222D01*
X0062897Y0047222D01*
X0062897Y0050602D01*
X0061557Y0053836D01*
X0059082Y0056311D01*
X0055847Y0057651D01*
X0052346Y0057651D01*
X0049112Y0056311D01*
X0046637Y0053836D01*
X0045297Y0050602D01*
X0045297Y0047222D01*
X0041924Y0047222D01*
X0038689Y0045882D01*
X0036214Y0043407D01*
X0034874Y0040172D01*
X0034874Y0036672D01*
X0036214Y0033437D01*
X0038689Y0030962D01*
X0041924Y0029622D01*
X0045297Y0029622D01*
X0045297Y0026235D01*
X0046637Y0023000D01*
X0049112Y0020525D01*
X0052346Y0019185D01*
X0055847Y0019185D01*
X0059082Y0020525D01*
X0061557Y0023000D01*
X0062897Y0026235D01*
X0062897Y0029622D01*
X0066291Y0029622D01*
X0069525Y0030962D01*
X0072000Y0033437D01*
X0073340Y0036672D01*
X0073340Y0040172D01*
X0072000Y0043407D01*
X0069525Y0045882D01*
X0071425Y0043982D02*
X0149781Y0043982D01*
X0148258Y0042384D02*
X0072424Y0042384D01*
X0073086Y0040785D02*
X0147464Y0040785D01*
X0147131Y0039187D02*
X0073340Y0039187D01*
X0073340Y0037588D02*
X0147182Y0037588D01*
X0147623Y0035990D02*
X0073058Y0035990D01*
X0072396Y0034391D02*
X0148553Y0034391D01*
X0150334Y0032793D02*
X0071356Y0032793D01*
X0069757Y0031194D02*
X0158252Y0031194D01*
X0158224Y0031145D02*
X0157882Y0030321D01*
X0157652Y0029460D01*
X0157536Y0028581D01*
X0163885Y0028581D01*
X0163885Y0027681D01*
X0157536Y0027681D01*
X0157652Y0026801D01*
X0157882Y0025940D01*
X0158224Y0025117D01*
X0158669Y0024345D01*
X0159212Y0023638D01*
X0159842Y0023007D01*
X0160549Y0022465D01*
X0161321Y0022019D01*
X0162145Y0021678D01*
X0163006Y0021447D01*
X0163885Y0021331D01*
X0163885Y0027681D01*
X0164785Y0027681D01*
X0164785Y0021331D01*
X0165665Y0021447D01*
X0166526Y0021678D01*
X0167349Y0022019D01*
X0168121Y0022465D01*
X0168829Y0023007D01*
X0169459Y0023638D01*
X0170002Y0024345D01*
X0170447Y0025117D01*
X0170788Y0025940D01*
X0171019Y0026801D01*
X0171135Y0027681D01*
X0164786Y0027681D01*
X0164786Y0028581D01*
X0171135Y0028581D01*
X0171019Y0029460D01*
X0170788Y0030321D01*
X0170447Y0031145D01*
X0170002Y0031917D01*
X0169459Y0032624D01*
X0168829Y0033254D01*
X0168121Y0033797D01*
X0167349Y0034243D01*
X0166526Y0034584D01*
X0165665Y0034814D01*
X0164785Y0034930D01*
X0164785Y0028581D01*
X0163885Y0028581D01*
X0163885Y0034930D01*
X0163006Y0034814D01*
X0162145Y0034584D01*
X0161321Y0034243D01*
X0160549Y0033797D01*
X0159842Y0033254D01*
X0159212Y0032624D01*
X0158669Y0031917D01*
X0158224Y0031145D01*
X0157688Y0029596D02*
X0062897Y0029596D01*
X0062897Y0027997D02*
X0163885Y0027997D01*
X0164786Y0027997D02*
X0187903Y0027997D01*
X0187241Y0026399D02*
X0170911Y0026399D01*
X0170264Y0024800D02*
X0187134Y0024800D01*
X0187241Y0023201D02*
X0169023Y0023201D01*
X0166247Y0021603D02*
X0187903Y0021603D01*
X0189139Y0020004D02*
X0057826Y0020004D01*
X0060160Y0021603D02*
X0162424Y0021603D01*
X0163885Y0021603D02*
X0164785Y0021603D01*
X0164785Y0023201D02*
X0163885Y0023201D01*
X0163885Y0024800D02*
X0164785Y0024800D01*
X0164785Y0026399D02*
X0163885Y0026399D01*
X0163885Y0029596D02*
X0164785Y0029596D01*
X0164785Y0031194D02*
X0163885Y0031194D01*
X0163885Y0032793D02*
X0164785Y0032793D01*
X0164785Y0034391D02*
X0163885Y0034391D01*
X0161680Y0034391D02*
X0159268Y0034391D01*
X0159381Y0032793D02*
X0157487Y0032793D01*
X0154360Y0032793D02*
X0153460Y0032793D01*
X0153460Y0034391D02*
X0154360Y0034391D01*
X0154360Y0035990D02*
X0153460Y0035990D01*
X0153460Y0037588D02*
X0154360Y0037588D01*
X0154360Y0039187D02*
X0153460Y0039187D01*
X0153460Y0040785D02*
X0154360Y0040785D01*
X0154360Y0042384D02*
X0153460Y0042384D01*
X0153460Y0043982D02*
X0154360Y0043982D01*
X0157783Y0047179D02*
X0066394Y0047179D01*
X0062897Y0048778D02*
X0163885Y0048778D01*
X0163885Y0049447D02*
X0157536Y0049447D01*
X0157652Y0050326D01*
X0157882Y0051187D01*
X0158224Y0052011D01*
X0158669Y0052783D01*
X0159212Y0053490D01*
X0159842Y0054120D01*
X0160549Y0054663D01*
X0161321Y0055109D01*
X0162145Y0055450D01*
X0163006Y0055680D01*
X0163885Y0055796D01*
X0163885Y0049447D01*
X0163885Y0050376D02*
X0164785Y0050376D01*
X0164786Y0048778D02*
X0202882Y0048778D01*
X0202882Y0050376D02*
X0171006Y0050376D01*
X0170462Y0051975D02*
X0202882Y0051975D01*
X0202882Y0053573D02*
X0169376Y0053573D01*
X0167197Y0055172D02*
X0202882Y0055172D01*
X0202882Y0056770D02*
X0057974Y0056770D01*
X0060221Y0055172D02*
X0161474Y0055172D01*
X0163885Y0055172D02*
X0164785Y0055172D01*
X0164785Y0053573D02*
X0163885Y0053573D01*
X0163885Y0051975D02*
X0164785Y0051975D01*
X0164785Y0047179D02*
X0163885Y0047179D01*
X0163885Y0045581D02*
X0164785Y0045581D01*
X0164785Y0043982D02*
X0163885Y0043982D01*
X0160357Y0040785D02*
X0168330Y0040785D01*
X0167998Y0039187D02*
X0160689Y0039187D01*
X0160638Y0037588D02*
X0168048Y0037588D01*
X0168489Y0035990D02*
X0160198Y0035990D01*
X0166991Y0034391D02*
X0169419Y0034391D01*
X0169290Y0032793D02*
X0171200Y0032793D01*
X0170419Y0031194D02*
X0191703Y0031194D01*
X0189139Y0029596D02*
X0170983Y0029596D01*
X0174326Y0032793D02*
X0175226Y0032793D01*
X0175226Y0034391D02*
X0174326Y0034391D01*
X0174326Y0035990D02*
X0175226Y0035990D01*
X0175226Y0037588D02*
X0174326Y0037588D01*
X0174326Y0039187D02*
X0175226Y0039187D01*
X0175226Y0040785D02*
X0174326Y0040785D01*
X0174326Y0042384D02*
X0175226Y0042384D01*
X0175226Y0043982D02*
X0174326Y0043982D01*
X0170888Y0047179D02*
X0202882Y0047179D01*
X0202882Y0058369D02*
X0011631Y0058369D01*
X0011631Y0059967D02*
X0202882Y0059967D01*
X0202882Y0061566D02*
X0011631Y0061566D01*
X0011631Y0063164D02*
X0202882Y0063164D01*
X0202882Y0064763D02*
X0011631Y0064763D01*
X0011631Y0066361D02*
X0202882Y0066361D01*
X0202882Y0067960D02*
X0011631Y0067960D01*
X0011631Y0069558D02*
X0202882Y0069558D01*
X0202882Y0071157D02*
X0011631Y0071157D01*
X0011631Y0072755D02*
X0202882Y0072755D01*
X0202882Y0074354D02*
X0011631Y0074354D01*
X0011631Y0075952D02*
X0202882Y0075952D01*
X0202882Y0077551D02*
X0011631Y0077551D01*
X0011631Y0079149D02*
X0202882Y0079149D01*
X0202882Y0080748D02*
X0011631Y0080748D01*
X0011631Y0082346D02*
X0202882Y0082346D01*
X0202882Y0083945D02*
X0011631Y0083945D01*
X0011631Y0085543D02*
X0202882Y0085543D01*
X0202882Y0087142D02*
X0011631Y0087142D01*
X0011631Y0088740D02*
X0202882Y0088740D01*
X0202882Y0090339D02*
X0011631Y0090339D01*
X0011631Y0091937D02*
X0202882Y0091937D01*
X0202882Y0093536D02*
X0011631Y0093536D01*
X0011631Y0095134D02*
X0202882Y0095134D01*
X0202882Y0096733D02*
X0011631Y0096733D01*
X0011631Y0098332D02*
X0202882Y0098332D01*
X0202882Y0099930D02*
X0011631Y0099930D01*
X0011631Y0101529D02*
X0202882Y0101529D01*
X0202882Y0103127D02*
X0011631Y0103127D01*
X0011631Y0104726D02*
X0202882Y0104726D01*
X0202882Y0106324D02*
X0011631Y0106324D01*
X0011631Y0107923D02*
X0202882Y0107923D01*
X0202882Y0109521D02*
X0011631Y0109521D01*
X0011631Y0111120D02*
X0202882Y0111120D01*
X0202882Y0112718D02*
X0011631Y0112718D01*
X0011631Y0114317D02*
X0202882Y0114317D01*
X0202882Y0115915D02*
X0011631Y0115915D01*
X0011631Y0117514D02*
X0202882Y0117514D01*
X0202882Y0119112D02*
X0011631Y0119112D01*
X0011631Y0120711D02*
X0202882Y0120711D01*
X0202882Y0122309D02*
X0011631Y0122309D01*
X0011631Y0123908D02*
X0202882Y0123908D01*
X0202882Y0125506D02*
X0011631Y0125506D01*
X0011631Y0127105D02*
X0202882Y0127105D01*
X0202882Y0128703D02*
X0011631Y0128703D01*
X0011631Y0130302D02*
X0202882Y0130302D01*
X0202882Y0131900D02*
X0011631Y0131900D01*
X0011631Y0133499D02*
X0202882Y0133499D01*
X0202882Y0135097D02*
X0011631Y0135097D01*
X0011631Y0136696D02*
X0202882Y0136696D01*
X0202882Y0138294D02*
X0011631Y0138294D01*
X0011631Y0139893D02*
X0202882Y0139893D01*
X0202882Y0141491D02*
X0011631Y0141491D01*
X0011631Y0143090D02*
X0202882Y0143090D01*
X0202882Y0144688D02*
X0011631Y0144688D01*
X0011631Y0146287D02*
X0202882Y0146287D01*
X0202882Y0147885D02*
X0011631Y0147885D01*
X0011631Y0149484D02*
X0202882Y0149484D01*
X0202882Y0151082D02*
X0011631Y0151082D01*
X0011631Y0152681D02*
X0202882Y0152681D01*
X0202882Y0154279D02*
X0011631Y0154279D01*
X0011631Y0155878D02*
X0202882Y0155878D01*
X0202882Y0157476D02*
X0011631Y0157476D01*
X0011631Y0159075D02*
X0202882Y0159075D01*
X0202882Y0160673D02*
X0011631Y0160673D01*
X0011631Y0162272D02*
X0202882Y0162272D01*
X0202882Y0163870D02*
X0011631Y0163870D01*
X0011631Y0165469D02*
X0202882Y0165469D01*
X0202882Y0167068D02*
X0011631Y0167068D01*
X0011631Y0168666D02*
X0202882Y0168666D01*
X0202882Y0170265D02*
X0011631Y0170265D01*
X0011631Y0171863D02*
X0202882Y0171863D01*
X0202882Y0173462D02*
X0011631Y0173462D01*
X0011631Y0175060D02*
X0202882Y0175060D01*
X0202882Y0176659D02*
X0011631Y0176659D01*
X0011631Y0178257D02*
X0202882Y0178257D01*
X0202882Y0179856D02*
X0011631Y0179856D01*
X0011631Y0181454D02*
X0202882Y0181454D01*
X0202882Y0183053D02*
X0011631Y0183053D01*
X0011631Y0184651D02*
X0202882Y0184651D01*
X0202882Y0186250D02*
X0011631Y0186250D01*
X0011631Y0187848D02*
X0202882Y0187848D01*
X0202882Y0189447D02*
X0011631Y0189447D01*
X0011631Y0191045D02*
X0051232Y0191045D01*
X0052349Y0190583D02*
X0049114Y0191922D01*
X0046639Y0194398D01*
X0045299Y0197632D01*
X0045299Y0201039D01*
X0041924Y0201039D01*
X0038689Y0202379D01*
X0036214Y0204855D01*
X0034874Y0208089D01*
X0034874Y0211590D01*
X0036214Y0214824D01*
X0038689Y0217300D01*
X0041924Y0218639D01*
X0045299Y0218639D01*
X0045299Y0221999D01*
X0046639Y0225234D01*
X0049114Y0227709D01*
X0052349Y0229049D01*
X0055850Y0229049D01*
X0059084Y0227709D01*
X0061559Y0225234D01*
X0062899Y0221999D01*
X0062899Y0218639D01*
X0066291Y0218639D01*
X0069525Y0217300D01*
X0072000Y0214824D01*
X0073340Y0211590D01*
X0073340Y0208089D01*
X0072000Y0204855D01*
X0069525Y0202379D01*
X0066291Y0201039D01*
X0062899Y0201039D01*
X0062899Y0197632D01*
X0061559Y0194398D01*
X0059084Y0191922D01*
X0055850Y0190583D01*
X0052349Y0190583D01*
X0048393Y0192644D02*
X0011631Y0192644D01*
X0011631Y0194242D02*
X0046795Y0194242D01*
X0046041Y0195841D02*
X0011631Y0195841D01*
X0011631Y0197439D02*
X0045379Y0197439D01*
X0045299Y0199038D02*
X0011631Y0199038D01*
X0011631Y0200636D02*
X0045299Y0200636D01*
X0039038Y0202235D02*
X0011631Y0202235D01*
X0011631Y0203833D02*
X0037235Y0203833D01*
X0035975Y0205432D02*
X0011631Y0205432D01*
X0011631Y0207030D02*
X0035313Y0207030D01*
X0034874Y0208629D02*
X0011631Y0208629D01*
X0011631Y0210227D02*
X0034874Y0210227D01*
X0034972Y0211826D02*
X0011631Y0211826D01*
X0011631Y0213424D02*
X0035634Y0213424D01*
X0036412Y0215023D02*
X0022247Y0215023D01*
X0021983Y0214913D02*
X0024459Y0215939D01*
X0026354Y0217834D01*
X0027380Y0220310D01*
X0027380Y0222990D01*
X0026354Y0225467D01*
X0024459Y0227362D01*
X0021983Y0228387D01*
X0019302Y0228387D01*
X0016826Y0227362D01*
X0014931Y0225467D01*
X0013906Y0222990D01*
X0013906Y0220310D01*
X0014931Y0217834D01*
X0016826Y0215939D01*
X0019302Y0214913D01*
X0021983Y0214913D01*
X0025141Y0216621D02*
X0038011Y0216621D01*
X0040911Y0218220D02*
X0026514Y0218220D01*
X0027176Y0219818D02*
X0045299Y0219818D01*
X0045299Y0221417D02*
X0027380Y0221417D01*
X0027369Y0223015D02*
X0045720Y0223015D01*
X0046382Y0224614D02*
X0026707Y0224614D01*
X0025608Y0226212D02*
X0047618Y0226212D01*
X0049360Y0227811D02*
X0023374Y0227811D01*
X0017911Y0227811D02*
X0015346Y0227811D01*
X0015677Y0226212D02*
X0013812Y0226212D01*
X0014578Y0224614D02*
X0012889Y0224614D01*
X0012235Y0223015D02*
X0013916Y0223015D01*
X0013906Y0221417D02*
X0011806Y0221417D01*
X0011640Y0219818D02*
X0014109Y0219818D01*
X0014771Y0218220D02*
X0011631Y0218220D01*
X0011631Y0216621D02*
X0016144Y0216621D01*
X0019038Y0215023D02*
X0011631Y0215023D01*
X0017688Y0229409D02*
X0197996Y0229409D01*
X0197687Y0227362D02*
X0195211Y0228387D01*
X0192531Y0228387D01*
X0190055Y0227362D01*
X0188160Y0225467D01*
X0187134Y0222990D01*
X0187134Y0220310D01*
X0188160Y0217834D01*
X0190055Y0215939D01*
X0192531Y0214913D01*
X0195211Y0214913D01*
X0197687Y0215939D01*
X0199582Y0217834D01*
X0200608Y0220310D01*
X0200608Y0222990D01*
X0199582Y0225467D01*
X0197687Y0227362D01*
X0196603Y0227811D02*
X0200088Y0227811D01*
X0198836Y0226212D02*
X0201388Y0226212D01*
X0202226Y0224614D02*
X0199935Y0224614D01*
X0200598Y0223015D02*
X0202633Y0223015D01*
X0202869Y0221417D02*
X0200608Y0221417D01*
X0200404Y0219818D02*
X0202882Y0219818D01*
X0202882Y0218220D02*
X0199742Y0218220D01*
X0198369Y0216621D02*
X0202882Y0216621D01*
X0202882Y0215023D02*
X0195475Y0215023D01*
X0192267Y0215023D02*
X0179191Y0215023D01*
X0179270Y0214963D02*
X0178562Y0215505D01*
X0177790Y0215951D01*
X0176967Y0216292D01*
X0176106Y0216523D01*
X0175226Y0216639D01*
X0175226Y0210289D01*
X0181576Y0210289D01*
X0181460Y0211169D01*
X0181229Y0212030D01*
X0180888Y0212853D01*
X0180442Y0213625D01*
X0179900Y0214333D01*
X0179270Y0214963D01*
X0180559Y0213424D02*
X0202882Y0213424D01*
X0202882Y0211826D02*
X0181284Y0211826D01*
X0181576Y0209389D02*
X0175226Y0209389D01*
X0175226Y0203040D01*
X0176106Y0203156D01*
X0176967Y0203386D01*
X0177790Y0203728D01*
X0178562Y0204173D01*
X0179270Y0204716D01*
X0179900Y0205346D01*
X0180442Y0206053D01*
X0180888Y0206825D01*
X0181229Y0207649D01*
X0181460Y0208510D01*
X0181576Y0209389D01*
X0181476Y0208629D02*
X0202882Y0208629D01*
X0202882Y0210227D02*
X0175226Y0210227D01*
X0175226Y0210289D02*
X0175226Y0209389D01*
X0174326Y0209389D01*
X0167977Y0209389D01*
X0168093Y0208510D01*
X0168323Y0207649D01*
X0168665Y0206825D01*
X0169110Y0206053D01*
X0169653Y0205346D01*
X0170283Y0204716D01*
X0170990Y0204173D01*
X0171762Y0203728D01*
X0172586Y0203386D01*
X0173447Y0203156D01*
X0174326Y0203040D01*
X0174326Y0209389D01*
X0174326Y0210289D01*
X0167977Y0210289D01*
X0168093Y0211169D01*
X0168323Y0212030D01*
X0168665Y0212853D01*
X0169110Y0213625D01*
X0169653Y0214333D01*
X0170283Y0214963D01*
X0170990Y0215505D01*
X0171762Y0215951D01*
X0172586Y0216292D01*
X0173447Y0216523D01*
X0174326Y0216639D01*
X0174326Y0210289D01*
X0175226Y0210289D01*
X0174326Y0210227D02*
X0154360Y0210227D01*
X0154360Y0210289D02*
X0160710Y0210289D01*
X0160594Y0211169D01*
X0160363Y0212030D01*
X0160022Y0212853D01*
X0159576Y0213625D01*
X0159034Y0214333D01*
X0158403Y0214963D01*
X0157696Y0215505D01*
X0156924Y0215951D01*
X0156101Y0216292D01*
X0155240Y0216523D01*
X0154360Y0216639D01*
X0154360Y0210289D01*
X0154360Y0209389D01*
X0154360Y0203040D01*
X0155240Y0203156D01*
X0156101Y0203386D01*
X0156924Y0203728D01*
X0157696Y0204173D01*
X0158403Y0204716D01*
X0159034Y0205346D01*
X0159576Y0206053D01*
X0160022Y0206825D01*
X0160363Y0207649D01*
X0160594Y0208510D01*
X0160710Y0209389D01*
X0154360Y0209389D01*
X0153460Y0209389D01*
X0153460Y0203040D01*
X0152581Y0203156D01*
X0151720Y0203386D01*
X0150896Y0203728D01*
X0150124Y0204173D01*
X0149417Y0204716D01*
X0148787Y0205346D01*
X0148244Y0206053D01*
X0147798Y0206825D01*
X0147457Y0207649D01*
X0147227Y0208510D01*
X0147111Y0209389D01*
X0153460Y0209389D01*
X0153460Y0210289D01*
X0147111Y0210289D01*
X0147227Y0211169D01*
X0147457Y0212030D01*
X0147798Y0212853D01*
X0148244Y0213625D01*
X0148787Y0214333D01*
X0149417Y0214963D01*
X0150124Y0215505D01*
X0150896Y0215951D01*
X0151720Y0216292D01*
X0152581Y0216523D01*
X0153460Y0216639D01*
X0153460Y0210289D01*
X0154360Y0210289D01*
X0153460Y0210227D02*
X0118784Y0210227D01*
X0118784Y0211232D02*
X0117719Y0213805D01*
X0115749Y0215774D01*
X0113177Y0216839D01*
X0110392Y0216839D01*
X0107819Y0215774D01*
X0105850Y0213805D01*
X0104784Y0211232D01*
X0104784Y0208447D01*
X0105850Y0205874D01*
X0107819Y0203905D01*
X0110392Y0202839D01*
X0113177Y0202839D01*
X0115749Y0203905D01*
X0117719Y0205874D01*
X0118784Y0208447D01*
X0118784Y0211232D01*
X0118538Y0211826D02*
X0147403Y0211826D01*
X0148128Y0213424D02*
X0117876Y0213424D01*
X0116500Y0215023D02*
X0149495Y0215023D01*
X0153460Y0215023D02*
X0154360Y0215023D01*
X0154360Y0216621D02*
X0153460Y0216621D01*
X0153328Y0216621D02*
X0113703Y0216621D01*
X0109866Y0216621D02*
X0107414Y0216621D01*
X0107278Y0216292D02*
X0108343Y0218864D01*
X0108343Y0221649D01*
X0107278Y0224222D01*
X0105308Y0226191D01*
X0102736Y0227257D01*
X0099951Y0227257D01*
X0097378Y0226191D01*
X0095409Y0224222D01*
X0094343Y0221649D01*
X0094343Y0218864D01*
X0095409Y0216292D01*
X0097378Y0214322D01*
X0099951Y0213257D01*
X0102736Y0213257D01*
X0105308Y0214322D01*
X0107278Y0216292D01*
X0107068Y0215023D02*
X0106009Y0215023D01*
X0105692Y0213424D02*
X0103140Y0213424D01*
X0105030Y0211826D02*
X0097672Y0211826D01*
X0097918Y0211232D02*
X0096852Y0213805D01*
X0094883Y0215774D01*
X0092310Y0216839D01*
X0089526Y0216839D01*
X0086953Y0215774D01*
X0084984Y0213805D01*
X0083918Y0211232D01*
X0083918Y0208447D01*
X0084984Y0205874D01*
X0086953Y0203905D01*
X0089526Y0202839D01*
X0092310Y0202839D01*
X0094883Y0203905D01*
X0096852Y0205874D01*
X0097918Y0208447D01*
X0097918Y0211232D01*
X0097918Y0210227D02*
X0104784Y0210227D01*
X0104784Y0208629D02*
X0097918Y0208629D01*
X0097331Y0207030D02*
X0105371Y0207030D01*
X0105050Y0205432D02*
X0106292Y0205432D01*
X0105308Y0205325D02*
X0102736Y0206391D01*
X0099951Y0206391D01*
X0097378Y0205325D01*
X0095409Y0203356D01*
X0094343Y0200783D01*
X0094343Y0197998D01*
X0095409Y0195425D01*
X0097378Y0193456D01*
X0099951Y0192391D01*
X0102736Y0192391D01*
X0105308Y0193456D01*
X0107278Y0195425D01*
X0108343Y0197998D01*
X0108343Y0200783D01*
X0107278Y0203356D01*
X0105308Y0205325D01*
X0106800Y0203833D02*
X0107992Y0203833D01*
X0107742Y0202235D02*
X0158153Y0202235D01*
X0158224Y0202405D02*
X0157882Y0201581D01*
X0157652Y0200720D01*
X0157536Y0199841D01*
X0163885Y0199841D01*
X0163885Y0206190D01*
X0163006Y0206074D01*
X0162145Y0205843D01*
X0161321Y0205502D01*
X0160549Y0205057D01*
X0159842Y0204514D01*
X0159212Y0203884D01*
X0158669Y0203177D01*
X0158224Y0202405D01*
X0159173Y0203833D02*
X0157107Y0203833D01*
X0159099Y0205432D02*
X0161199Y0205432D01*
X0160107Y0207030D02*
X0168580Y0207030D01*
X0168077Y0208629D02*
X0160610Y0208629D01*
X0160418Y0211826D02*
X0168269Y0211826D01*
X0168994Y0213424D02*
X0159692Y0213424D01*
X0160549Y0214591D02*
X0161321Y0214145D01*
X0162145Y0213804D01*
X0163006Y0213573D01*
X0163885Y0213457D01*
X0163885Y0219807D01*
X0157536Y0219807D01*
X0157652Y0218927D01*
X0157882Y0218066D01*
X0158224Y0217243D01*
X0158669Y0216471D01*
X0159212Y0215764D01*
X0159842Y0215133D01*
X0160549Y0214591D01*
X0159986Y0215023D02*
X0158325Y0215023D01*
X0158582Y0216621D02*
X0154493Y0216621D01*
X0157841Y0218220D02*
X0108076Y0218220D01*
X0108343Y0219818D02*
X0163885Y0219818D01*
X0163885Y0219807D02*
X0163885Y0220707D01*
X0157536Y0220707D01*
X0157652Y0221586D01*
X0157882Y0222447D01*
X0158224Y0223271D01*
X0158669Y0224043D01*
X0159212Y0224750D01*
X0159842Y0225380D01*
X0160549Y0225923D01*
X0161321Y0226369D01*
X0162145Y0226710D01*
X0163006Y0226940D01*
X0163885Y0227056D01*
X0163885Y0220707D01*
X0164785Y0220707D01*
X0164785Y0227056D01*
X0165665Y0226940D01*
X0166526Y0226710D01*
X0167349Y0226369D01*
X0168121Y0225923D01*
X0168829Y0225380D01*
X0169459Y0224750D01*
X0170002Y0224043D01*
X0170447Y0223271D01*
X0170788Y0222447D01*
X0171019Y0221586D01*
X0171135Y0220707D01*
X0164786Y0220707D01*
X0164786Y0219807D01*
X0171135Y0219807D01*
X0171019Y0218927D01*
X0170788Y0218066D01*
X0170447Y0217243D01*
X0170002Y0216471D01*
X0169459Y0215764D01*
X0168829Y0215133D01*
X0168121Y0214591D01*
X0167349Y0214145D01*
X0166526Y0213804D01*
X0165665Y0213573D01*
X0164785Y0213457D01*
X0164785Y0219807D01*
X0163885Y0219807D01*
X0164786Y0219818D02*
X0187338Y0219818D01*
X0187134Y0221417D02*
X0171041Y0221417D01*
X0170553Y0223015D02*
X0187144Y0223015D01*
X0187806Y0224614D02*
X0169563Y0224614D01*
X0167620Y0226212D02*
X0188905Y0226212D01*
X0191139Y0227811D02*
X0058838Y0227811D01*
X0060581Y0226212D02*
X0097430Y0226212D01*
X0095801Y0224614D02*
X0061816Y0224614D01*
X0062478Y0223015D02*
X0094909Y0223015D01*
X0094343Y0221417D02*
X0062899Y0221417D01*
X0062899Y0219818D02*
X0094343Y0219818D01*
X0094610Y0218220D02*
X0067303Y0218220D01*
X0070203Y0216621D02*
X0088999Y0216621D01*
X0086202Y0215023D02*
X0071802Y0215023D01*
X0072580Y0213424D02*
X0084826Y0213424D01*
X0084164Y0211826D02*
X0073242Y0211826D01*
X0073340Y0210227D02*
X0083918Y0210227D01*
X0083918Y0208629D02*
X0073340Y0208629D01*
X0072902Y0207030D02*
X0084505Y0207030D01*
X0085426Y0205432D02*
X0072240Y0205432D01*
X0070979Y0203833D02*
X0087126Y0203833D01*
X0094710Y0203833D02*
X0095887Y0203833D01*
X0096410Y0205432D02*
X0097636Y0205432D01*
X0094945Y0202235D02*
X0069177Y0202235D01*
X0062899Y0200636D02*
X0094343Y0200636D01*
X0094343Y0199038D02*
X0062899Y0199038D01*
X0062819Y0197439D02*
X0094575Y0197439D01*
X0095237Y0195841D02*
X0062157Y0195841D01*
X0061404Y0194242D02*
X0096592Y0194242D01*
X0099340Y0192644D02*
X0059805Y0192644D01*
X0056966Y0191045D02*
X0202882Y0191045D01*
X0202882Y0192644D02*
X0165185Y0192644D01*
X0164785Y0192644D02*
X0163885Y0192644D01*
X0163885Y0192591D02*
X0163885Y0198940D01*
X0164785Y0198940D01*
X0164785Y0192591D01*
X0165665Y0192707D01*
X0166526Y0192938D01*
X0167349Y0193279D01*
X0168121Y0193724D01*
X0168829Y0194267D01*
X0169459Y0194897D01*
X0170002Y0195605D01*
X0170447Y0196377D01*
X0170788Y0197200D01*
X0171019Y0198061D01*
X0171135Y0198941D01*
X0164786Y0198941D01*
X0164786Y0199841D01*
X0171135Y0199841D01*
X0171019Y0200720D01*
X0170788Y0201581D01*
X0170447Y0202405D01*
X0170002Y0203177D01*
X0169459Y0203884D01*
X0168829Y0204514D01*
X0168121Y0205057D01*
X0167349Y0205502D01*
X0166526Y0205843D01*
X0165665Y0206074D01*
X0164785Y0206190D01*
X0164785Y0199841D01*
X0163885Y0199841D01*
X0163885Y0198941D01*
X0157536Y0198941D01*
X0157652Y0198061D01*
X0157882Y0197200D01*
X0158224Y0196377D01*
X0158669Y0195605D01*
X0159212Y0194897D01*
X0159842Y0194267D01*
X0160549Y0193724D01*
X0161321Y0193279D01*
X0162145Y0192938D01*
X0163006Y0192707D01*
X0163885Y0192591D01*
X0163486Y0192644D02*
X0103347Y0192644D01*
X0106094Y0194242D02*
X0159875Y0194242D01*
X0158533Y0195841D02*
X0107450Y0195841D01*
X0108112Y0197439D02*
X0157818Y0197439D01*
X0157641Y0200636D02*
X0108343Y0200636D01*
X0108343Y0199038D02*
X0163885Y0199038D01*
X0164786Y0199038D02*
X0202882Y0199038D01*
X0202882Y0200636D02*
X0171030Y0200636D01*
X0170518Y0202235D02*
X0202882Y0202235D01*
X0202882Y0203833D02*
X0177973Y0203833D01*
X0179966Y0205432D02*
X0202882Y0205432D01*
X0202882Y0207030D02*
X0180973Y0207030D01*
X0175226Y0207030D02*
X0174326Y0207030D01*
X0174326Y0205432D02*
X0175226Y0205432D01*
X0175226Y0203833D02*
X0174326Y0203833D01*
X0171579Y0203833D02*
X0169498Y0203833D01*
X0169587Y0205432D02*
X0167472Y0205432D01*
X0164785Y0205432D02*
X0163885Y0205432D01*
X0163885Y0203833D02*
X0164785Y0203833D01*
X0164785Y0202235D02*
X0163885Y0202235D01*
X0163885Y0200636D02*
X0164785Y0200636D01*
X0164785Y0197439D02*
X0163885Y0197439D01*
X0163885Y0195841D02*
X0164785Y0195841D01*
X0164785Y0194242D02*
X0163885Y0194242D01*
X0168796Y0194242D02*
X0202882Y0194242D01*
X0202882Y0195841D02*
X0170138Y0195841D01*
X0170852Y0197439D02*
X0202882Y0197439D01*
X0189372Y0216621D02*
X0175359Y0216621D01*
X0175226Y0216621D02*
X0174326Y0216621D01*
X0174194Y0216621D02*
X0170089Y0216621D01*
X0170361Y0215023D02*
X0168685Y0215023D01*
X0170830Y0218220D02*
X0188000Y0218220D01*
X0175226Y0215023D02*
X0174326Y0215023D01*
X0174326Y0213424D02*
X0175226Y0213424D01*
X0175226Y0211826D02*
X0174326Y0211826D01*
X0174326Y0208629D02*
X0175226Y0208629D01*
X0164785Y0215023D02*
X0163885Y0215023D01*
X0163885Y0216621D02*
X0164785Y0216621D01*
X0164785Y0218220D02*
X0163885Y0218220D01*
X0163885Y0221417D02*
X0164785Y0221417D01*
X0164785Y0223015D02*
X0163885Y0223015D01*
X0163885Y0224614D02*
X0164785Y0224614D01*
X0164785Y0226212D02*
X0163885Y0226212D01*
X0161051Y0226212D02*
X0105257Y0226212D01*
X0106886Y0224614D02*
X0159108Y0224614D01*
X0158118Y0223015D02*
X0107777Y0223015D01*
X0108343Y0221417D02*
X0157630Y0221417D01*
X0154360Y0213424D02*
X0153460Y0213424D01*
X0153460Y0211826D02*
X0154360Y0211826D01*
X0154360Y0208629D02*
X0153460Y0208629D01*
X0153460Y0207030D02*
X0154360Y0207030D01*
X0154360Y0205432D02*
X0153460Y0205432D01*
X0153460Y0203833D02*
X0154360Y0203833D01*
X0150713Y0203833D02*
X0115576Y0203833D01*
X0117276Y0205432D02*
X0148721Y0205432D01*
X0147714Y0207030D02*
X0118197Y0207030D01*
X0118784Y0208629D02*
X0147211Y0208629D01*
X0099546Y0213424D02*
X0097010Y0213424D01*
X0096678Y0215023D02*
X0095634Y0215023D01*
X0095272Y0216621D02*
X0092837Y0216621D01*
X0050220Y0056770D02*
X0011631Y0056770D01*
X0011631Y0055172D02*
X0047972Y0055172D01*
X0046528Y0053573D02*
X0011631Y0053573D01*
X0011631Y0051975D02*
X0045866Y0051975D01*
X0045297Y0050376D02*
X0011631Y0050376D01*
X0011631Y0048778D02*
X0045297Y0048778D01*
X0041820Y0047179D02*
X0011631Y0047179D01*
X0011631Y0045581D02*
X0038388Y0045581D01*
X0036789Y0043982D02*
X0011631Y0043982D01*
X0011631Y0042384D02*
X0035790Y0042384D01*
X0035128Y0040785D02*
X0011631Y0040785D01*
X0011631Y0039187D02*
X0034874Y0039187D01*
X0034874Y0037588D02*
X0011631Y0037588D01*
X0011631Y0035990D02*
X0035157Y0035990D01*
X0035819Y0034391D02*
X0011631Y0034391D01*
X0011631Y0032793D02*
X0036858Y0032793D01*
X0038457Y0031194D02*
X0022811Y0031194D01*
X0025375Y0029596D02*
X0045297Y0029596D01*
X0045297Y0027997D02*
X0026610Y0027997D01*
X0027272Y0026399D02*
X0045297Y0026399D01*
X0045891Y0024800D02*
X0027380Y0024800D01*
X0027272Y0023201D02*
X0046553Y0023201D01*
X0048034Y0021603D02*
X0026610Y0021603D01*
X0025375Y0020004D02*
X0050368Y0020004D01*
X0061640Y0023201D02*
X0159648Y0023201D01*
X0158406Y0024800D02*
X0062303Y0024800D01*
X0062897Y0026399D02*
X0157760Y0026399D01*
X0157665Y0050376D02*
X0062897Y0050376D01*
X0062328Y0051975D02*
X0158209Y0051975D01*
X0159295Y0053573D02*
X0061666Y0053573D01*
X0022811Y0018406D02*
X0191703Y0018406D01*
X0018474Y0031194D02*
X0011631Y0031194D01*
X0011631Y0029596D02*
X0015910Y0029596D01*
X0014675Y0027997D02*
X0011631Y0027997D01*
X0011656Y0026399D02*
X0014013Y0026399D01*
X0013906Y0024800D02*
X0011869Y0024800D01*
X0012297Y0023201D02*
X0014013Y0023201D01*
X0014675Y0021603D02*
X0013024Y0021603D01*
D12*
X0032800Y0072800D03*
X0032800Y0077800D03*
X0032800Y0083800D03*
X0038800Y0083800D03*
X0038800Y0077800D03*
X0038800Y0072800D03*
X0044800Y0072800D03*
X0044800Y0077800D03*
X0044800Y0083800D03*
X0044800Y0089800D03*
X0044800Y0095800D03*
X0044800Y0100800D03*
X0038800Y0100800D03*
X0038800Y0095800D03*
X0038800Y0089800D03*
X0032800Y0089800D03*
X0032800Y0095800D03*
X0032800Y0100800D03*
X0026800Y0095800D03*
X0026800Y0089800D03*
X0026800Y0083800D03*
X0026800Y0077800D03*
X0050800Y0077800D03*
X0050800Y0083800D03*
X0055800Y0083800D03*
X0055800Y0089800D03*
X0050800Y0089800D03*
X0050800Y0095800D03*
X0050800Y0100800D03*
X0055800Y0095800D03*
X0048800Y0144800D03*
X0048800Y0149800D03*
X0048800Y0154800D03*
X0048800Y0159800D03*
X0048800Y0164800D03*
X0048800Y0169800D03*
X0043800Y0169800D03*
X0043800Y0164800D03*
X0043800Y0159800D03*
X0043800Y0154800D03*
X0043800Y0149800D03*
X0043800Y0144800D03*
X0038800Y0144800D03*
X0038800Y0149800D03*
X0038800Y0154800D03*
X0038800Y0159800D03*
X0038800Y0164800D03*
X0038800Y0169800D03*
X0033800Y0169800D03*
X0033800Y0164800D03*
X0033800Y0159800D03*
X0033800Y0154800D03*
X0033800Y0149800D03*
X0033800Y0144800D03*
X0028800Y0144800D03*
X0028800Y0149800D03*
X0028800Y0154800D03*
X0028800Y0159800D03*
X0028800Y0164800D03*
X0028800Y0169800D03*
X0053800Y0169800D03*
X0053800Y0164800D03*
X0053800Y0159800D03*
X0053800Y0154800D03*
X0053800Y0149800D03*
X0162800Y0094800D03*
X0167800Y0094800D03*
X0167800Y0100800D03*
X0173800Y0100800D03*
X0173800Y0094800D03*
X0173800Y0088800D03*
X0173800Y0082800D03*
X0167800Y0082800D03*
X0167800Y0088800D03*
X0162800Y0088800D03*
X0162800Y0082800D03*
X0167800Y0076800D03*
X0173800Y0076800D03*
X0179800Y0076800D03*
X0179800Y0082800D03*
X0179800Y0088800D03*
X0179800Y0094800D03*
X0179800Y0100800D03*
X0185800Y0100800D03*
X0185800Y0094800D03*
X0185800Y0088800D03*
X0185800Y0082800D03*
X0185800Y0076800D03*
X0191800Y0076800D03*
X0191800Y0082800D03*
X0196800Y0082800D03*
X0196800Y0088800D03*
X0191800Y0088800D03*
X0191800Y0094800D03*
X0196800Y0094800D03*
X0191800Y0100800D03*
X0188800Y0148800D03*
X0188800Y0153800D03*
X0183800Y0153800D03*
X0183800Y0148800D03*
X0178800Y0148800D03*
X0178800Y0153800D03*
X0178800Y0158800D03*
X0178800Y0163800D03*
X0178800Y0168800D03*
X0178800Y0173800D03*
X0183800Y0173800D03*
X0183800Y0168800D03*
X0183800Y0163800D03*
X0183800Y0158800D03*
X0188800Y0158800D03*
X0188800Y0163800D03*
X0188800Y0168800D03*
X0188800Y0173800D03*
X0193800Y0168800D03*
X0193800Y0163800D03*
X0193800Y0158800D03*
X0193800Y0153800D03*
X0173800Y0153800D03*
X0173800Y0148800D03*
X0168800Y0148800D03*
X0168800Y0153800D03*
X0163800Y0153800D03*
X0163800Y0158800D03*
X0163800Y0163800D03*
X0168800Y0163800D03*
X0168800Y0158800D03*
X0173800Y0158800D03*
X0173800Y0163800D03*
X0173800Y0168800D03*
X0173800Y0173800D03*
X0168800Y0168800D03*
M02*
